<?xml version="1.0" encoding="UTF-8"?>
<!DOCTYPE svg PUBLIC "-//W3C//DTD SVG 1.1//EN" "http://www.w3.org/Graphics/SVG/1.1/DTD/svg11.dtd">
<!-- Creator: CorelDRAW X7 -->
<svg xmlns="http://www.w3.org/2000/svg" xml:space="preserve" width="297mm" height="210mm" version="1.1" style="shape-rendering:geometricPrecision; text-rendering:geometricPrecision; image-rendering:optimizeQuality; fill-rule:evenodd; clip-rule:evenodd"
viewBox="0 0 29700 21000"
 xmlns:xlink="http://www.w3.org/1999/xlink">
 <defs>
  <style type="text/css">
   <![CDATA[
    .fil0 {fill:white}
   ]]>
  </style>
   <clipPath id="id0">
    <rect x="8555" y="5572" width="13545" height="9497"/>
   </clipPath>
 </defs>
 <g id="Camada_x0020_1">
  <metadata id="CorelCorpID_0Corel-Layer"/>
  <g style="clip-path:url(#id0)">
   <image x="8555" y="5572" width="13545" height="9497" xlink:href="jantar_Images\jantar_ImgID1.jpg"/>
  </g>
  <g id="_1362661926000">
   <path class="fil0" d="M18506 9671c0,145 225,358 393,586 694,939 983,2014 983,3276 -222,0 -238,98 -238,265 0,251 596,132 844,161 702,83 673,1147 -76,1163 -1049,22 -2344,-1 -3414,-1l-3968 -1c-214,-2 -370,2 -370,212 0,128 83,212 211,212l7540 0c562,0 1005,-459 1005,-873l0 -15c0,-317 -3,-582 -297,-852 -272,-250 -466,-271 -814,-271 0,-1348 -278,-2331 -931,-3354 -96,-151 -482,-720 -656,-720 -128,0 -212,84 -212,212z"/>
   <path class="fil0" d="M14115 7660l0 -370 1058 0 0 370 -661 -26c-176,0 -229,26 -397,26zm-318 -1217l1693 0c455,0 325,424 133,424l-1958 0c-192,0 -318,-424 132,-424zm-740 212c0,361 268,635 635,635l0 423c-289,67 -531,110 -804,202 -274,92 -487,183 -739,293 -71,31 -97,54 -152,86 -374,219 -397,202 -793,504 -103,79 -237,155 -237,291 0,109 102,211 211,211 125,0 509,-330 709,-455 121,-75 251,-144 376,-206 143,-71 253,-128 416,-193 1670,-665 3253,-462 4734,413 285,168 580,468 749,468 213,0 260,-264 85,-402 -220,-172 -340,-272 -586,-419l-336 -193c-672,-361 -984,-426 -1729,-600l0 -423c866,0 780,-1243 80,-1243l-2064 0c-302,0 -555,304 -555,608z"/>
   <path class="fil0" d="M8983 13348l0 185 -186 0c-463,0 -926,444 -926,900 0,320 17,593 311,853 156,139 408,258 695,258l3201 0c128,0 211,-84 211,-212 0,-299 -467,-211 -952,-211l-2382 0c-225,2 -323,-41 -450,-132 -313,-223 -290,-810 130,-984 207,-85 1332,-48 1644,-48 395,0 635,75 635,-265 0,-64 -95,-159 -159,-159l-1349 0c0,-1312 301,-2332 994,-3291l306 -382c318,-383 -106,-583 -322,-296 -148,198 -288,337 -449,583 -597,904 -952,1984 -952,3201z"/>
   <path class="fil0" d="M11284 13718c0,172 91,239 265,239l7486 0c292,0 302,-424 27,-424l-7566 0c-113,0 -212,82 -212,185z"/>
  </g>
 </g>
</svg>
