<?xml version="1.0" encoding="UTF-8"?>
<!DOCTYPE svg PUBLIC "-//W3C//DTD SVG 1.1//EN" "http://www.w3.org/Graphics/SVG/1.1/DTD/svg11.dtd">
<!-- Creator: CorelDRAW X7 -->
<svg xmlns="http://www.w3.org/2000/svg" xml:space="preserve" width="297mm" height="210mm" version="1.1" style="shape-rendering:geometricPrecision; text-rendering:geometricPrecision; image-rendering:optimizeQuality; fill-rule:evenodd; clip-rule:evenodd"
viewBox="0 0 29700 21000"
 xmlns:xlink="http://www.w3.org/1999/xlink">
 <defs>
  <style type="text/css">
   <![CDATA[
    .fil0 {fill:white}
   ]]>
  </style>
   <clipPath id="id0">
    <rect x="6944" y="6983" width="7269" height="5610"/>
   </clipPath>
 </defs>
 <g id="Camada_x0020_1">
  <metadata id="CorelCorpID_0Corel-Layer"/>
  <g id="_1362661924048">
   <path class="fil0" d="M17227 10529c-196,-94 -144,31 -418,252 -1377,1114 -3335,717 -4110,-840 -902,-1812 538,-3788 2235,-3788 475,0 548,-12 1019,145 179,60 449,230 604,243 -5,-208 -60,-174 -235,-259 -144,-70 -213,-98 -378,-151 -139,-46 -238,-72 -395,-100 -387,-68 -537,-60 -924,-10 -361,46 -854,272 -1136,451 -869,555 -1390,1763 -1171,2826 430,2086 2776,2895 4380,1760 152,-108 478,-340 529,-529z"/>
   <path class="fil0" d="M13487 7529c211,-56 335,-444 1072,-656 1846,-530 3372,1769 1901,3241 -592,593 -1020,490 -1456,591 19,229 163,137 355,109 420,-62 819,-206 1119,-505 482,-480 714,-894 714,-1650 0,-615 -313,-1163 -765,-1529 -1374,-1112 -3115,34 -2940,399z"/>
   <path class="fil0" d="M17580 7459c0,-644 -55,-654 141,-671 0,333 -70,883 106,883 176,0 106,-550 106,-883 155,42 109,18 106,495 -3,312 -81,388 211,388 56,-241 36,-586 36,-883 185,50 106,238 106,883 0,443 -90,482 -318,635 0,493 12,1410 81,1862 43,283 8,290 -222,290 -225,0 -136,-501 -102,-807 64,-577 67,-812 67,-1381 -164,-109 -191,-86 -254,-311 -37,-133 -64,-317 -64,-500zm882 -443l0 584c0,520 -67,573 -317,741 0,131 -24,247 -22,313 1,50 22,168 22,286 1,410 30,383 35,600l37 636c17,196 61,353 -214,353 -196,0 -305,-68 -280,-311 64,-619 104,-1262 104,-1912 -404,-214 -318,-892 -318,-1306 0,-128 30,-197 71,-282 302,0 212,230 212,882l70 0c0,-297 -21,-641 36,-882l176 0c56,241 35,585 35,882l106 0c0,-372 -75,-882 141,-882 66,0 95,133 106,298z"/>
   <path class="fil0" d="M11264 7388c0,-213 75,-345 251,-419 184,-79 449,-40 549,113 136,205 90,1188 -123,1371 -186,159 -148,74 -148,594 0,683 106,1126 106,1623 -595,139 -282,-33 -282,-2117 -165,-110 -233,-254 -274,-467 -43,-221 -79,-454 -79,-698zm282 1271c0,735 -70,1315 -70,1976 0,179 208,141 388,141 182,-210 78,-114 71,-637l-80 -1049c-37,-234 9,-240 9,-502 349,-234 265,-415 345,-926 47,-303 -4,-803 -486,-803 -516,0 -541,396 -498,780 27,239 17,382 81,590 117,385 240,276 240,430z"/>
   <path class="fil0" d="M11687 7177c389,32 389,955 0,988 238,423 674,-1003 0,-1059l0 71z"/>
  </g>
  <g style="clip-path:url(#id0)">
   <image x="6944" y="6983" width="7269" height="5610" xlink:href="almoço_Images\almoço_ImgID1.jpg"/>
  </g>
  <g id="_1362661922576">
   <path class="fil0" d="M12977 11535c-196,-94 -144,32 -417,253 -1378,1114 -3336,716 -4111,-841 -902,-1811 539,-3787 2235,-3787 475,0 548,-13 1019,145 179,60 449,230 604,243 -5,-208 -60,-174 -235,-259 -144,-70 -213,-98 -378,-152 -138,-45 -237,-71 -394,-99 -388,-68 -537,-60 -925,-11 -361,46 -854,272 -1136,452 -869,554 -1389,1762 -1170,2825 429,2087 2776,2896 4379,1760 152,-107 479,-339 529,-529z"/>
   <path class="fil0" d="M9237 8536c211,-56 335,-445 1073,-656 1845,-531 3372,1769 1900,3241 -592,593 -1020,489 -1456,591 19,228 164,137 355,108 420,-62 819,-205 1119,-505 483,-480 714,-894 714,-1650 0,-615 -313,-1162 -765,-1528 -1374,-1112 -3115,34 -2940,399z"/>
   <path class="fil0" d="M13330 8465c0,-644 -55,-654 141,-670 0,332 -69,882 106,882 176,0 106,-550 106,-882 155,41 110,17 106,494 -3,313 -81,388 212,388 56,-241 35,-585 35,-882 185,49 106,237 106,882 0,443 -89,482 -318,635 0,494 12,1410 81,1863 44,283 8,290 -222,290 -225,0 -135,-502 -101,-807 64,-578 66,-812 66,-1381 -163,-109 -191,-86 -253,-311 -38,-134 -65,-317 -65,-501zm882 -443l0 585c0,519 -67,573 -317,741 0,131 -24,246 -22,312 1,50 23,168 23,286 0,411 29,383 34,601l38 635c17,196 60,353 -214,353 -197,0 -305,-67 -280,-311 64,-619 103,-1262 103,-1912 -403,-213 -317,-891 -317,-1305 0,-128 29,-197 70,-283 302,0 212,231 212,883l71 0c0,-297 -21,-642 35,-883l176 0c56,241 36,586 36,883l105 0c0,-372 -75,-883 142,-883 65,0 94,134 105,298z"/>
   <path class="fil0" d="M7014 8395c0,-214 75,-346 251,-420 185,-78 449,-39 550,113 135,206 90,1189 -124,1372 -186,158 -148,74 -148,593 0,684 106,1126 106,1623 -595,139 -282,-33 -282,-2117 -164,-110 -233,-253 -274,-467 -43,-220 -79,-454 -79,-697zm282 1270c0,735 -70,1315 -70,1976 0,180 209,141 388,141 182,-210 79,-113 72,-636l-81 -1049c-36,-235 9,-240 9,-502 349,-234 265,-415 345,-926 47,-304 -3,-803 -486,-803 -516,0 -541,396 -498,779 27,240 18,383 81,590 117,385 240,276 240,430z"/>
   <path class="fil0" d="M7438 8183c388,32 388,956 0,988 237,423 674,-1002 0,-1058l0 70z"/>
  </g>
 </g>
</svg>
