<?xml version="1.0" encoding="UTF-8"?>
<!DOCTYPE svg PUBLIC "-//W3C//DTD SVG 1.1//EN" "http://www.w3.org/Graphics/SVG/1.1/DTD/svg11.dtd">
<!-- Creator: CorelDRAW X7 -->
<svg xmlns="http://www.w3.org/2000/svg" xml:space="preserve" width="297mm" height="210mm" version="1.1" style="shape-rendering:geometricPrecision; text-rendering:geometricPrecision; image-rendering:optimizeQuality; fill-rule:evenodd; clip-rule:evenodd"
viewBox="0 0 29700 21000"
 xmlns:xlink="http://www.w3.org/1999/xlink">
 <defs>
  <style type="text/css">
   <![CDATA[
    .fil1 {fill:#E7E0E0}
    .fil0 {fill:white}
   ]]>
  </style>
   <clipPath id="id0">
    <rect x="13751" y="8521" width="4377" height="5114"/>
   </clipPath>
 </defs>
 <g id="Camada_x0020_1">
  <metadata id="CorelCorpID_0Corel-Layer"/>
  <g style="clip-path:url(#id0)">
   <image x="13751" y="8521" width="4377" height="5114" xlink:href="happyhour_Images\happyhour_ImgID1.jpg"/>
  </g>
  <g id="_1362661907152">
   <path class="fil0" d="M17197 13204l-68 0 0 33c-52,0 -47,-2 -118,35 -105,55 -73,18 -118,42 -35,18 23,8 -43,17 -45,6 -65,0 -76,42 -121,0 -71,12 -115,29 -47,18 -92,-14 -97,47 -16,-8 -40,-13 -67,-9 -32,5 -34,7 -34,43 -141,0 -141,-12 -144,34 -83,-40 -207,34 -212,34l-186 0c0,-175 -34,-52 -34,-144 0,-23 27,-41 42,-52 93,-72 230,29 237,-58 23,11 111,29 144,-34 31,0 44,3 71,-6 21,-6 45,-22 59,-26 52,-12 110,18 116,-44 16,7 40,12 67,8 32,-4 33,-7 34,-42l68 0c8,-30 1,-22 33,-26 11,-2 46,0 60,0 18,-27 14,-6 17,-42 31,15 59,0 102,0 4,-19 6,-19 8,-42l68 0c2,-27 0,-16 8,-34 78,0 24,6 143,-52 27,-13 39,-23 66,-36 27,-13 47,-18 71,-31 0,79 -5,84 42,85l0 118c-25,3 -102,46 -122,65 -21,19 -21,9 -22,46zm-262 -1524c11,8 16,15 25,25 20,21 6,-3 23,28 17,30 9,52 2,82 0,34 -10,100 9,127 14,20 17,4 25,25 -32,-15 -41,-5 -67,9 2,88 69,85 110,85 0,36 -9,90 4,122 12,27 0,-1 15,19 16,23 6,23 6,79l0 34c15,27 1,24 42,25l0 85c-42,3 -33,8 -33,50 26,13 46,10 59,17 0,80 -14,123 42,127l0 161c-61,14 -1,26 -93,26l-17 33c-1,-37 -6,-26 -8,-59l-51 0c-13,26 -22,74 -9,102 -85,0 -97,-12 -101,34l-51 0c-3,-30 -11,-50 -44,-28 -34,22 -6,33 2,62 -40,0 -42,1 -51,33 -121,0 -71,13 -115,30 -47,17 -92,-14 -97,47 -69,-34 -90,21 -127,25 18,-76 12,-131 -85,-85l0 77c24,11 17,8 51,8 -43,27 -79,42 -135,42 0,-61 13,-67 -51,-67l0 93c-35,-19 -49,-45 -89,-22 -26,14 -54,60 -76,68 -21,9 -105,8 -132,5 -62,-7 5,-18 -101,-43 0,-28 10,-110 -10,-126 -38,-31 -18,-23 -33,-59 -11,-28 -14,-11 -31,-54 -1,-2 -2,-4 -3,-6 -25,-63 -25,-12 -25,-85l26 0 0 -42c-62,-15 -69,-40 -110,-51l0 -102c-44,-5 -16,11 -30,-37 -12,-39 10,-29 -38,-30 0,-129 3,-78 -23,-122 -60,-106 -18,-161 -87,-166 0,-24 4,-70 -3,-91 -11,-33 -8,-8 -16,-26 -14,-29 -5,-102 -6,-138 0,-46 3,-58 -43,-59 0,-122 5,-50 -31,-146 -11,-31 0,-28 -36,-31 38,-80 -32,-168 -58,-222 -36,-73 1,-53 -44,-58l0 -17c39,-3 15,9 34,-17 -5,-19 -15,-34 -27,-49 -16,-19 -19,-24 -49,-27 0,-245 -34,-57 -34,-237 -16,-8 -11,-6 -34,-8 11,-24 25,-97 -34,-102 12,-52 11,-104 -42,-119 39,-82 -26,-27 -26,-177 -36,-1 -40,2 -43,-34l9 -59c0,-35 3,-28 -8,-51l34 0 0 -34c139,0 83,-2 127,-34 10,7 0,3 18,7 90,17 129,-30 185,-33 23,-1 40,-1 53,-5 38,-11 18,-7 43,-26 33,-24 55,-19 107,-19 6,-54 36,-29 76,-26 0,68 4,115 9,170l34 0c-23,48 13,102 29,140 33,82 47,51 106,89 80,51 38,24 125,-11 53,-22 16,4 55,-38 20,-22 34,-29 57,-45l0 -135c40,-1 22,2 42,-18 106,-105 71,-97 69,-254 -1,-71 -22,-47 -35,-101 42,-22 41,-17 102,-17 5,-47 -9,-14 39,-29 35,-10 28,2 29,-38l68 0c18,-35 24,-50 67,-60l9 0 32 -26c78,-67 95,12 81,45 -21,49 -47,16 -12,83l51 -26 0 136c-42,3 -34,8 -34,51 28,13 42,14 68,8 0,66 2,58 42,85 0,101 -11,111 17,170 12,27 8,46 19,73 17,41 24,6 24,70 -51,14 -29,51 -26,93l68 0c0,20 -2,60 0,77 9,68 19,-1 25,59 -59,-40 -76,0 -42,51 31,-9 18,-9 42,-26 3,26 0,16 9,34l-34 0c0,41 -2,35 18,59 2,3 14,15 16,17l34 9c-11,22 -29,133 42,152 0,18 -1,43 0,60 4,53 15,31 4,55 -1,4 -37,48 21,54 -4,59 -25,40 -25,102 43,0 37,6 59,-17 0,75 -6,88 26,136zm-618 -2261c0,26 84,103 110,110 0,45 -3,67 16,102 8,15 3,2 9,17 16,38 -1,47 42,50l0 119 -33 0 0 68c-41,3 -73,36 -77,76 -56,0 -54,2 -95,23 0,1 -16,8 -17,8l-93 51c-56,38 -74,-5 -136,60 -35,36 -154,132 -40,163l0 101 26 0c3,35 8,19 8,51 0,52 -31,62 -42,102 -33,-16 -52,0 -93,0 -10,39 -28,88 25,93l0 84c-31,3 -31,3 -34,34l-84 0c-13,-54 -34,-29 -34,-101l-34 0c0,-89 21,-140 -34,-144 32,-137 -87,-255 -189,-207l-26 17c-55,20 -118,-25 -124,46 -83,0 -139,-22 -144,34 -32,-16 -105,-9 -110,42 -137,0 -82,-9 -150,62 -111,116 -104,74 -104,226 0,23 2,41 6,54 8,30 4,28 37,31 -17,34 -25,130 34,135 -21,44 -3,106 42,119 -18,37 -11,65 14,95 28,34 20,52 20,108l25 0c0,103 42,95 42,203 16,8 11,6 34,8 -21,44 -11,98 43,110 0,95 17,82 30,157 10,63 43,88 59,135 16,46 -14,76 38,89 0,225 -18,117 -26,187 -26,-18 -75,-35 -91,-53 -40,-44 -5,-78 -61,-83 21,-43 1,-56 0,-101l-34 0c1,-65 16,-156 6,-227 -9,-64 -6,-152 -6,-231 -15,-7 -27,-9 -42,-16 8,-100 -27,-108 -59,-187 -17,-41 5,-47 -43,-51 0,-16 1,-35 1,-51 0,-5 -1,-20 -2,-24 -8,-39 -12,-6 -28,-48 -7,-20 -5,-22 -5,-46l-34 0c23,-47 -17,-62 -37,-106 -28,-61 -30,-45 -30,-131 -68,-45 -16,-80 -77,-85 25,-51 -12,-88 -26,-134 -23,-73 -15,-62 -58,-137 -15,-27 -27,-59 -43,-84 -59,-96 -225,-150 -228,-280l-34 0c33,-69 -34,-65 -34,-262l34 0c1,-56 17,-72 50,-103 1,-1 3,-3 4,-4 21,-21 13,-26 48,-29 0,-76 -14,-39 -24,-86 -11,-57 18,-52 -27,-83 26,-39 17,-49 17,-110 34,-9 62,-54 105,-73 74,-32 47,-48 106,-79l0 -93c42,-12 55,-76 117,-138 53,-54 60,-53 131,-43 41,6 103,16 108,-40l34 0c11,-134 29,-123 141,-222 47,-41 66,0 70,-57l263 0c4,51 68,23 127,118 1,3 5,9 6,11 53,94 114,49 256,49 4,42 46,55 67,103 15,37 29,40 68,41 43,2 112,7 145,-9l0 34 101 0c8,30 34,50 51,76 21,31 16,64 59,68l0 263c-23,2 -33,-1 -33,25zm-1414 -627l0 26c-32,0 -85,-6 -113,6 -24,10 -20,7 -23,36 -59,0 -60,5 -91,36 -25,25 -49,30 -53,74l-34 0 0 34 -33 0 0 68c-40,3 -36,13 -49,44 -27,64 -84,132 -163,134l0 67c-40,10 -32,11 -46,47 -46,113 -30,38 -30,199 0,25 10,23 34,25l0 51c-36,3 -102,62 -102,102l0 271c0,49 44,96 63,140 20,46 38,50 81,122 22,35 62,80 97,107 46,35 66,70 115,96l0 68 25 0c0,105 34,84 34,195 27,18 6,14 42,17 0,134 5,59 29,123 7,20 5,23 5,46l34 0c0,40 -3,72 42,85 -30,64 20,107 48,163 14,28 21,49 35,75 11,19 1,-2 10,16 17,38 -1,47 43,50 -20,42 9,91 21,123 9,22 9,49 17,68 12,30 22,25 38,47 0,128 -4,262 -1,390 1,52 38,90 59,135 19,40 -1,27 32,61 22,22 37,26 45,57l68 0c13,48 43,51 102,51 3,44 45,125 84,135l0 68 26 0c0,83 13,90 57,171 13,25 5,66 19,91 21,37 34,24 34,85l25 0c0,39 6,78 23,104 50,77 44,121 76,178 11,20 0,-4 9,16 16,33 8,48 45,58 0,80 3,95 40,163 29,55 11,38 27,90 18,53 12,4 29,40 24,48 -28,91 39,96 0,41 6,35 9,68l33 0 0 25 415 0c9,-25 3,-27 68,-25 52,1 64,12 68,-34 188,0 94,-18 196,-32l51 -17c42,-24 103,4 108,-61 49,23 124,-20 167,-45 44,-26 60,-3 96,-23 36,-21 23,-34 84,-34l0 -33c67,0 115,-39 170,-68 27,-13 25,-8 50,-27 29,-21 49,-42 75,-68 39,-39 61,-56 61,-117 0,-25 -10,-23 -34,-25l0 -102c-60,-16 8,-92 -59,-110 0,-27 2,-66 -2,-92 -5,-34 -10,-49 -49,-52 0,-29 2,-66 1,-94 -7,-113 -46,43 -25,-168 -28,-18 -7,-14 -44,-17 0,-84 23,-140 -33,-144 0,-43 18,-97 -34,-102 6,-13 32,-138 -34,-144l0 -135c-15,-7 -28,-10 -43,-17 0,-41 6,-94 -10,-125 -17,-37 -15,-84 -15,-129 -27,-18 -6,-14 -42,-17 10,-22 12,-58 7,-92 -7,-47 -8,-38 -41,-60l-1 -101c-9,-39 -14,-8 -23,-45 -15,-59 19,-109 -44,-125 0,-182 -28,-100 -34,-186 -7,-87 -29,-85 -34,-128 -1,-14 0,-43 0,-59 -20,-13 -8,-10 -33,-17l0 -118c-28,-19 -6,-14 -43,-17 0,-84 22,-140 -34,-144 37,-77 -22,-139 -27,-155 -12,-43 17,-124 -49,-142 0,-51 9,-61 9,-110 -27,-18 -6,-14 -43,-17 0,-241 -34,-61 -34,-237 -15,-7 -10,-6 -33,-8 0,-51 0,-102 0,-153 0,-79 -34,-42 -34,-127 -20,-4 -20,-6 -43,-8l0 -68c-21,-14 -38,-27 -67,-34l0 -381c-39,-26 -67,-56 -68,-110 -58,0 -117,-39 -155,-65 -43,-30 -130,-19 -201,-19 -10,-39 -30,-36 -57,-61 -26,-25 -34,-56 -64,-64 -20,-5 -31,0 -53,-6 -30,-9 -18,-14 -42,-26 -34,-15 -77,-19 -89,13l-16 0c-8,-30 -7,-16 -27,-33l-85 -92c-54,-56 -82,-36 -202,-36l0 -26 -59 0c-9,23 1,13 -25,18 -37,6 -82,0 -118,9l-87 40c-20,10 -18,10 -33,17 -61,28 -52,13 -87,83 -16,32 -73,90 -73,104z"/>
   <path class="fil0" d="M17307 10274l0 34c-102,0 -49,19 -121,57 -32,16 -40,12 -64,37 -69,74 -54,26 -101,69 -76,70 -69,35 -69,116 0,32 19,26 67,26 38,0 26,-40 88,-65 48,-19 77,-20 82,-79 51,0 53,-1 107,-28 66,-33 14,-27 129,-83 13,-6 6,-4 22,-12 35,-17 84,-39 97,-89l68 0c8,-30 114,-136 144,-144l-10 -50c-80,-7 -49,-7 -115,27 -169,86 -87,54 -156,98 -27,17 -37,13 -59,26 -45,26 -26,60 -109,60z"/>
   <path class="fil0" d="M17798 10943c-23,-11 -96,-25 -101,34 -94,0 -40,12 -98,29 -54,15 -75,-12 -89,47 -16,0 -35,-1 -51,-1 -77,2 -19,33 -118,35l0 34c-99,-2 -110,-27 -110,67 0,37 69,34 102,34 74,0 102,-76 228,-76 18,-27 14,-6 17,-42 54,26 107,-19 127,-26 48,-16 32,7 90,-28 30,-18 46,-14 88,-14 8,-15 6,-11 8,-34 52,25 212,-52 212,-93 0,-59 -75,-42 -178,-42 -34,0 -47,17 -71,30 -45,23 -52,-4 -56,46z"/>
   <path class="fil0" d="M13751 10418l0 93 186 102 51 0c2,78 23,9 96,48l117 61c84,20 132,56 177,35 1,12 -18,42 76,42 96,0 85,-22 85,-76 0,-28 -21,-25 -48,-37 -26,-12 -30,-15 -59,-25 -3,-1 -10,-4 -13,-5 -60,-26 3,-26 -126,-26 -5,-59 -44,-49 -102,-51 -101,-2 31,-26 -135,-26 -34,-50 -48,-50 -119,-33 -5,-61 -24,-9 -82,-70 -28,-29 -57,-50 -104,-32z"/>
   <path class="fil0" d="M16774 10054c0,75 -8,68 68,68 20,0 14,-7 27,-15 21,-13 10,-9 34,-17 69,-20 17,3 51,-42l154 -134c58,-23 45,-25 108,-86 23,-23 37,-26 40,-62 63,-1 59,-54 84,-94 20,-31 42,-30 18,-135 -23,-1 -23,-4 -42,-8 -38,57 -368,389 -459,472 -49,46 -83,10 -83,53z"/>
   <path class="fil0" d="M17409 12103c0,77 25,75 86,100 28,12 23,16 52,33 122,68 69,74 200,108 43,11 -3,48 77,30 7,15 9,27 17,42 15,0 63,-2 75,1 79,17 -50,33 128,33 52,0 -17,-34 84,-34l0 -68c-30,-8 -21,-31 -84,-34 -36,-1 -86,7 -111,-7 -25,-14 -4,-14 -36,-24 -23,-6 -24,1 -50,-9 -26,-9 -9,-9 -40,-19 -19,-7 -32,-8 -60,-8l0 -34c-62,0 -144,-51 -177,-102l-93 0c-8,-29 -17,-39 -51,-42 -10,15 -17,15 -17,34z"/>
   <path class="fil0" d="M17697 11612c-34,0 -68,0 -102,-1 -55,0 -72,-12 -76,35 -110,0 -110,-18 -110,67 0,47 152,34 195,34 32,0 39,-3 42,-34 47,0 137,5 180,-6 31,-8 29,-2 32,-36 155,13 94,-4 166,-28 46,-16 45,11 45,-74 0,-47 -121,-33 -178,-33 -44,0 -36,25 -106,37 -47,9 -84,-17 -88,39z"/>
   <path class="fil0" d="M14412 11756c-160,0 -88,21 -127,34 -40,0 -70,-18 -101,0 -20,11 2,-1 -15,11l-109 52c-38,8 -61,-2 -90,36 -2,2 -3,4 -4,5 -12,19 -12,28 -12,48 48,25 62,17 136,17 25,0 23,-10 25,-34 236,0 64,-38 195,-42 43,-1 47,9 51,-34 127,0 140,17 144,-34 34,0 83,6 115,-3 30,-9 137,-99 -22,-99 -118,0 -181,-17 -186,43z"/>
   <path class="fil0" d="M14200 11087l0 34 -254 0c-147,0 -169,-35 -169,67 0,20 6,26 25,26l533 0c26,0 24,-10 26,-34 109,0 110,18 110,-68 0,-33 -26,-24 -56,-28 -118,-15 -143,1 -215,3z"/>
   <path class="fil0" d="M14598 12382c-11,23 -8,9 -9,43 -26,-6 -49,-17 -85,-1 -35,14 3,0 -31,20 -46,27 -57,-4 -61,48 -115,0 -110,-25 -110,85 161,38 66,-17 220,-17 27,-41 21,-42 84,-42l0 -34 85 0c24,0 13,-7 27,-16l135 -76c28,-15 35,-18 75,-18l3 -49c0,-2 -3,-28 -3,-36 -114,-26 -115,5 -141,20 -11,7 -17,6 -30,12 -62,27 -88,61 -159,61z"/>
   <path class="fil1" d="M17087 12315l0 -34 -25 -34c-38,0 -50,-5 -77,8 -10,-19 -14,-25 -25,-42 -96,0 -76,-6 -76,93 64,0 68,9 101,-25 0,77 5,59 85,59 7,-14 8,-15 17,-25z"/>
   <path class="fil1" d="M16909 12543c0,22 6,9 9,42 13,0 27,2 40,-2l27 -23c13,46 28,19 43,59l51 0c2,-33 8,-20 8,-42 0,-22 -6,-9 -8,-42 -53,-13 -49,-13 -102,0 -2,-26 -6,-43 -34,-43 -25,0 -34,27 -34,51z"/>
   <path class="fil1" d="M16985 11815c7,-30 15,-52 -2,-82 -17,-31 -3,-7 -23,-28 -9,-10 -14,-17 -25,-25 -30,7 -38,3 -51,26 -8,14 -7,38 3,54 11,15 80,50 98,55z"/>
   <path class="fil0" d="M16952 12196c92,21 93,7 93,-85 -106,-24 -93,-5 -93,85z"/>
   <path class="fil1" d="M16774 12467c0,126 7,96 93,51l0 -51c-39,-19 -54,-19 -93,0z"/>
   <path class="fil1" d="M16638 12848c0,42 93,29 93,8 0,-64 -48,-76 -93,-76l0 68z"/>
   <path class="fil1" d="M16774 11823c0,39 93,39 93,0l0 -67c-54,0 -34,-8 -59,17 -11,12 -34,34 -34,50z"/>
   <path class="fil1" d="M15004 10757l26 0c13,-59 4,-41 0,-93l-60 0 -9 59c3,36 7,33 43,34z"/>
   <path class="fil1" d="M16629 11383c46,22 47,10 94,9l0 -60 -85 0 -9 51z"/>
   <path class="fil0" d="M16740 11883l0 67 59 0c0,-18 21,-93 -34,-93 -19,0 -25,6 -25,26z"/>
   <path class="fil0" d="M16528 10579l0 25c40,19 54,19 93,0 0,-57 5,-51 -67,-51 -20,0 -26,6 -26,26z"/>
   <path class="fil0" d="M16562 12966c41,10 16,17 76,17 39,-58 25,-67 -42,-67 -30,0 -33,20 -34,50z"/>
   <path class="fil1" d="M16410 10096l-9 0c-12,19 -23,26 -12,46 16,29 52,14 88,14l0 -60 -67 0z"/>
   <path class="fil1" d="M15893 13060c0,52 100,24 51,-68l-51 0 0 68z"/>
   <path class="fil0" d="M16808 11646c0,22 -3,41 12,56 31,30 73,-17 38,-90 -19,0 -50,-2 -50,34z"/>
   <path class="fil1" d="M16706 11637l0 68c34,0 34,-3 59,-9 24,-100 -59,-101 -59,-59z"/>
   <path class="fil1" d="M16808 12044c0,25 3,30 8,50l85 0 0 -59 -51 0c-13,0 -32,5 -42,9z"/>
   <path class="fil1" d="M16884 12662l0 25c92,49 121,-51 68,-51 -48,0 -68,-6 -68,26z"/>
   <path class="fil0" d="M16774 11358c0,39 -5,40 12,64l9 8c0,1 3,3 4,4 37,-19 34,-1 34,-76 0,-36 -59,-36 -59,0z"/>
   <path class="fil1" d="M16528 10689c0,30 20,33 51,34 5,-19 9,-20 9,-43l0 -50 -60 0 0 59z"/>
   <path class="fil1" d="M17129 12662c0,122 60,62 60,42 0,-62 6,-68 -34,-68 -20,0 -26,6 -26,26z"/>
   <path class="fil1" d="M16706 11180c0,123 59,63 59,42 0,-61 6,-67 -34,-67 -19,0 -25,5 -25,25z"/>
   <path class="fil1" d="M16774 12171c0,99 49,72 60,42 8,-20 -1,-25 -1,-68 -41,0 -59,-6 -59,26z"/>
   <path class="fil1" d="M16816 12348c0,47 85,47 85,0 0,-46 -85,-46 -85,0z"/>
   <path class="fil1" d="M16952 12382l8 68 42 0c32,-136 -50,-97 -50,-68z"/>
   <path class="fil1" d="M16562 10867l0 8c0,40 33,19 59,17l0 -51 -33 0c-20,0 -26,6 -26,26z"/>
   <path class="fil1" d="M16003 13153l51 0 0 -34c0,-20 -6,-26 -25,-26l-9 0c-40,0 -19,33 -17,60z"/>
   <path class="fil1" d="M16444 10333l8 0c20,0 25,-6 25,-25l0 -34 -50 0c-3,27 -23,59 17,59z"/>
   <path class="fil0" d="M15792 12941l50 0 0 -34c0,-19 -5,-25 -25,-25l-8 0c-40,0 -20,33 -17,59z"/>
   <path class="fil1" d="M17028 12763l51 0 0 -34c0,-19 -6,-25 -26,-25l-8 0c-40,0 -19,33 -17,59z"/>
   <path class="fil0" d="M16494 10257c0,81 60,29 60,17 0,-34 -60,-67 -60,-17z"/>
   <polygon class="fil0" points="16740,11527 16799,11527 16799,11476 16740,11476 "/>
   <path class="fil1" d="M16562 10757c0,33 59,60 59,0 0,-36 -59,-36 -59,0z"/>
   <path class="fil1" d="M16562 10968c0,33 59,60 59,0 0,-36 -59,-36 -59,0z"/>
   <path class="fil0" d="M16528 10477c0,54 58,49 60,-17 -16,-3 -60,-26 -60,17z"/>
   <path class="fil1" d="M16105 13051c0,54 58,49 59,-17 -15,-3 -59,-26 -59,17z"/>
   <path class="fil1" d="M16427 12924l0 51c33,8 17,8 50,0l0 -51c-24,-6 -26,-9 -50,0z"/>
   <path class="fil1" d="M16638 10875l0 51c33,8 18,8 51,0l0 -51c-25,-6 -26,-9 -51,0z"/>
   <path class="fil1" d="M16638 11053l0 51c33,8 18,8 51,0l0 -51c-25,-6 -26,-10 -51,0z"/>
   <path class="fil1" d="M16884 12746l0 51c33,8 18,8 51,0l0 -51c-25,-5 -27,-9 -51,0z"/>
  </g>
 </g>
</svg>
