<?xml version="1.0" encoding="UTF-8"?><svg id="Camada_2" xmlns="http://www.w3.org/2000/svg" viewBox="0 0 549.94 414.23"><defs><style>.cls-1,.cls-2{fill:#fff;}.cls-3,.cls-4,.cls-5,.cls-2,.cls-6{stroke:#000;}.cls-3,.cls-4,.cls-5,.cls-6{stroke-miterlimit:10;}.cls-3,.cls-6{fill:#0b154f;}.cls-4{fill:#fcfbfa;}.cls-5{fill:none;}.cls-5,.cls-2{stroke-linecap:round;stroke-width:2px;}.cls-2{stroke-linejoin:round;}.cls-7{opacity:.1;}.cls-8{fill:#ff3749;}.cls-6{stroke-width:.75px;}</style></defs><g id="Camada_1-2"><circle class="cls-8" cx="274.97" cy="134.41" r="111.41"/><path class="cls-1" d="M140.51,132.15c.35-.91,.33-1.87,.36-2.81,.12-4.25,.51-8.48,1.07-12.68,1.05-7.84,2.78-15.54,5.17-23.08,4.96-15.64,12.55-29.89,22.82-42.67,18.97-23.61,43.12-39.26,72.49-46.77,6.45-1.65,12.99-2.76,19.62-3.39,2.85-.27,5.7-.49,8.57-.57,.49-.01,.99,.04,1.46-.18h6.12c.39,.22,.83,.17,1.25,.18,3.82,.09,7.62,.4,11.42,.85,6.38,.76,12.67,1.96,18.88,3.61,18.13,4.82,34.55,13.07,49.13,24.84,23.54,19,39.13,43.16,46.56,72.52,1.83,7.22,2.98,14.56,3.57,21.99,.51,6.48,.58,12.96,.11,19.44-2,27.51-11.4,52.2-28.4,73.96-4.65,5.96-9.78,11.48-15.39,16.53-16.39,14.74-35.2,25.03-56.58,30.55-7.08,1.83-14.27,3.07-21.56,3.73-4.23,.38-8.47,.69-12.72,.61-30.92-.56-58.78-9.96-83-29.35-24.04-19.24-39.73-43.93-47.02-73.89-2.09-8.59-3.26-17.32-3.58-26.16-.03-.92,0-1.85-.36-2.72v-4.54Zm2.69,2.3c.13,73.08,59.16,131.79,131.82,131.85,72.95,.06,132.1-59.12,131.94-132.1-.15-72.96-59.15-131.51-131.61-131.65-72.99-.13-132.08,58.85-132.16,131.9Z"/><path class="cls-1" d="M280.14,264.31c-2.86-.02-5.22,0-7.59,.18-1.64,.12-3.29-.09-4.93-.22-2.85-.23-5.68-.69-8.55-.78-2.95-.09-5.79-.82-8.66-1.41-2.29-.47-4.53-1.11-6.87-1.33-.58-.06-1.16-.23-1.73-.41-2.85-.9-5.73-1.73-8.52-2.82-.34-.13-.68-.26-1.03-.33-3.17-.62-6.04-2.02-8.93-3.36-2.3-1.06-4.56-2.2-6.92-3.12-1.47-.58-2.84-1.39-4.19-2.2-1.97-1.19-3.91-2.43-5.87-3.65-.11-.07-.22-.15-.34-.21-4.15-1.96-7.59-4.95-11.14-7.78-.54-.43-1.08-.86-1.68-1.21-2.26-1.35-4.03-3.27-5.95-5.01-.73-.66-1.4-1.39-2.1-2.09-.93-.93-1.85-1.87-2.87-2.71-1.66-1.36-3.06-2.99-4.45-4.62-2.19-2.58-4.27-5.26-6.52-7.8-2.07-2.34-3.63-5.08-5.29-7.73-.65-1.03-1.27-2.07-2.04-3.02-1.53-1.88-2.49-4.1-3.64-6.21-.53-.98-.99-2-1.48-3.01-.57-1.19-1.14-2.37-1.82-3.5-1.55-2.58-2.51-5.43-3.54-8.24-.8-2.19-1.56-4.4-2.5-6.54-.91-2.09-1.3-4.34-1.87-6.54-.32-1.24-.58-2.5-.86-3.75-.19-.83-.37-1.67-.67-2.47-.89-2.33-1.07-4.81-1.43-7.24-.26-1.79-.38-3.6-.62-5.39-.15-1.14-.47-2.26-.59-3.4-.28-2.52-.38-5.05-.36-7.59,0-2.07,0-4.14-.15-6.22-.2-2.73,.16-5.45,.43-8.17,.2-2.09,.49-4.18,.54-6.29,.05-2.28,.59-4.49,1.03-6.72,.58-2.93,1.33-5.83,1.76-8.8,.3-2.12,1.18-4.1,1.79-6.15,.24-.79,.51-1.56,.8-2.33,.55-1.45,1-2.92,1.38-4.42,.58-2.27,1.63-4.37,2.6-6.5,1.17-2.57,2.46-5.09,3.5-7.73,.57-1.47,1.43-2.81,2.23-4.18,1.69-2.86,3.59-5.59,5.09-8.57,.48-.94,1.14-1.77,1.77-2.61,1.59-2.1,3.15-4.22,4.86-6.23,.34-.4,.65-.83,.92-1.28,1.39-2.31,3.33-4.16,5.12-6.12,.71-.78,1.49-1.49,2.23-2.24,.88-.89,1.77-1.76,2.57-2.73,2.05-2.48,4.59-4.43,7.05-6.46,1.73-1.42,3.52-2.76,5.11-4.34,.63-.63,1.37-1.13,2.11-1.62,2.35-1.57,4.67-3.19,7.13-4.61,.17-.1,.34-.2,.49-.33,2.88-2.42,6.26-3.97,9.6-5.62,1.62-.8,3.25-1.58,4.82-2.49,2.31-1.35,4.84-2.22,7.34-3.14,2.37-.87,4.77-1.67,7.1-2.69,2.12-.93,4.41-1.31,6.63-1.89,1.21-.31,2.43-.56,3.65-.83,.77-.17,1.54-.33,2.28-.62,1.98-.79,4.09-.96,6.16-1.3,2.24-.37,4.51-.53,6.76-.81,1.3-.16,2.56-.58,3.89-.66,2.63-.16,5.26-.31,7.89-.27,1.91,.03,3.81-.03,5.72-.18,1.74-.14,3.49,.08,5.22,.21,2.92,.22,5.81,.69,8.74,.79,2.88,.09,5.66,.82,8.46,1.4,2.29,.47,4.54,1.04,6.87,1.35,1.93,.25,3.73,1.04,5.59,1.6,1.35,.41,2.68,.89,4.01,1.37,.87,.31,1.73,.61,2.64,.81,2.82,.63,5.38,1.93,7.98,3.12,2.33,1.07,4.62,2.22,7.01,3.16,1.44,.56,2.77,1.37,4.1,2.17,1.97,1.19,3.91,2.43,5.87,3.65,.14,.09,.27,.19,.42,.26,3.95,1.85,7.21,4.69,10.59,7.36,.75,.59,1.48,1.2,2.3,1.7,2.25,1.36,4.04,3.26,5.93,5.04,2.01,1.89,3.92,3.89,6,5.72,1.85,1.63,3.35,3.62,4.91,5.53,1.58,1.93,3.09,3.93,4.85,5.72,.69,.71,1.23,1.55,1.78,2.37,1.48,2.22,3,4.41,4.34,6.72,.12,.2,.23,.41,.37,.58,2.48,2.96,4.06,6.44,5.75,9.86,.68,1.39,1.32,2.79,2.13,4.12,1.09,1.78,1.83,3.71,2.57,5.65,1.17,3.07,2.17,6.2,3.48,9.23,.92,2.12,1.3,4.41,1.88,6.64,.67,2.54,1.17,5.12,1.96,7.64,.62,1.97,.73,4.07,1.02,6.13,.24,1.69,.3,3.42,.6,5.1,.36,2.04,.71,4.08,.78,6.16,.07,1.94,.12,3.88,.1,5.82-.01,1.35,0,2.7,.12,4.04,.3,3.37-.13,6.7-.48,10.04-.18,1.77-.38,3.53-.43,5.31-.09,2.81-.82,5.53-1.36,8.27-.46,2.32-1.12,4.6-1.36,6.97-.08,.85-.36,1.67-.62,2.49-.83,2.63-1.62,5.28-2.62,7.86-.22,.58-.39,1.19-.53,1.79-.65,2.92-1.98,5.57-3.21,8.26-1.03,2.24-2.16,4.43-3.04,6.74-.56,1.48-1.39,2.84-2.2,4.19-1.18,1.98-2.42,3.92-3.64,5.87-.09,.14-.19,.27-.26,.42-1.84,3.95-4.69,7.21-7.35,10.6-.59,.75-1.2,1.48-1.71,2.29-1.6,2.57-3.78,4.64-5.86,6.79-1.55,1.61-3.18,3.15-4.62,4.87-1.08,1.29-2.38,2.37-3.66,3.45-1.77,1.48-3.58,2.9-5.37,4.35-.15,.12-.32,.24-.46,.38-3.1,3.16-6.91,5.34-10.6,7.68-.61,.39-1.23,.76-1.79,1.23-2.25,1.88-4.9,3.07-7.47,4.4-2.28,1.17-4.61,2.25-6.84,3.51-2.33,1.31-4.88,2.13-7.38,3.04-2.13,.77-4.28,1.5-6.36,2.42-2.05,.91-4.28,1.29-6.44,1.86-1.27,.33-2.56,.59-3.84,.88-.77,.17-1.55,.32-2.28,.61-2.04,.81-4.21,1-6.35,1.35-2.21,.36-4.44,.51-6.66,.8-1.33,.17-2.63,.59-3.98,.67-2.23,.13-4.47,.26-6.22,.27ZM173.8,71.48c-.06-.09-.09-.16-.14-.19-2.61-1.71-5.22-3.44-7.92-5.03-.46-.27-.69-.18-.94,.24-1.25,2.05-2.55,4.07-3.77,6.14-.75,1.27-1.46,2.58-2.02,3.95-.34,.84-.35,.85,.48,1.21,3.01,1.33,5.89,2.93,8.84,4.38,.12,.06,.24,.11,.34,.19,.24,.17,.32,.38,.16,.67-1.07,2.01-1.86,4.13-2.57,6.29-.24,.72-.54,1.42-1.03,2.01-.55,.65-1.05,.81-1.84,.46-1.3-.58-2.66-.96-3.98-1.47-.64-.25-1.29-.5-1.91-.81-.61-.3-.69-.46-.48-1.1,.49-1.47,1.06-2.91,1.74-4.3,.29-.6,.47-.66,1.1-.4,1.03,.43,2.05,.89,3.08,1.34,.12,.05,.24,.12,.34,.2,.2,.16,.29,.36,.17,.61-.11,.23-.3,.37-.55,.32-.22-.04-.44-.13-.65-.21-.7-.29-1.4-.57-2.09-.89-.41-.19-.6-.06-.75,.32-.28,.74-.59,1.46-.87,2.2-.39,1-.38,1,.57,1.4,1.52,.64,3.12,1.05,4.6,1.78,.36,.18,.57,.02,.73-.26,.37-.63,.63-1.3,.87-1.99,.56-1.65,1.2-3.27,1.89-4.88,.32-.73,.32-.74-.37-1.07-2.43-1.17-4.86-2.35-7.29-3.5-.4-.19-.75-.5-1.24-.58-.72,1.48-1.42,2.93-2.13,4.38-.91,1.86-1.75,3.77-2.45,5.71-.81,2.26-.95,1.84,1.19,2.69,2.05,.81,4.15,1.48,6.23,2.21,.71,.25,1.43,.5,2.13,.78,.67,.27,.78,.59,.44,1.22-.17,.32-.28,.67-.39,1.01-.55,1.69-.99,3.41-1.34,5.15-.15,.78-.41,1.53-.87,2.18-.47,.66-.93,.83-1.71,.59-1.23-.38-2.48-.63-3.73-.92-.74-.17-1.47-.37-2.19-.6-.85-.28-.98-.46-.76-1.29,.37-1.43,.78-2.85,1.21-4.27,.2-.67,.38-.74,1.11-.52,1.01,.3,2.01,.62,3.02,.93,.13,.04,.26,.07,.37,.12,.3,.15,.46,.39,.32,.72-.11,.27-.34,.39-.64,.32-.22-.05-.44-.12-.66-.19-.66-.2-1.33-.37-1.98-.6-.43-.15-.59-.02-.7,.38-.24,.89-.51,1.77-.75,2.66-.17,.65-.16,.68,.51,.86,1.33,.36,2.68,.67,4.01,1.02,1.71,.44,1.71,.45,2.22-1.3,.04-.13,.07-.25,.1-.38,.42-1.86,.81-3.73,1.46-5.53,.15-.42-.03-.59-.39-.72-2.76-.97-5.48-2.06-8.28-2.9-.85-.25-.84-.25-1.17,.62-1.11,2.86-1.97,5.79-2.88,8.71-.25,.82-.36,1.67-.49,2.52-.06,.42,.09,.59,.5,.66,3.14,.57,6.21,1.46,9.31,2.2,1.41,.33,1.39,.33,1.04,1.69-.41,1.56-.6,3.17-.77,4.77-.12,1.15-.22,2.3-.67,3.37-.37,.88-.87,1.14-1.8,.97-.91-.18-1.82-.28-2.74-.37-1.14-.12-2.3-.2-3.41-.5-.66-.18-.78-.32-.75-.95,.08-1.58,.48-3.12,.76-4.67,.08-.47,.38-.67,.86-.58,.42,.07,.84,.15,1.26,.23,.78,.14,1.55,.28,2.33,.44,.32,.07,.56,.28,.5,.62-.07,.38-.35,.54-.74,.47-.13-.02-.26-.06-.39-.08-.71-.13-1.43-.23-2.13-.39-.44-.1-.69-.04-.76,.45-.13,.85-.31,1.68-.43,2.53-.12,.89-.1,.9,.81,1.05,1.62,.26,3.28,.33,4.88,.68,.42,.09,.63-.06,.73-.43,.12-.48,.24-.96,.33-1.44,.36-2.04,.38-4.13,.92-6.14,.08-.3,.03-.51-.33-.56-.26-.04-.51-.12-.77-.18-2.69-.61-5.39-1.22-8.08-1.83-.7-.16-.71-.18-.89,.55-.67,2.61-1.19,5.26-1.7,7.91-.23,1.19-.4,2.4-.44,3.62-.02,.5,.15,.72,.62,.8,.97,.18,1.95,.3,2.93,.41,2.35,.26,4.71,.53,7.06,.81,.77,.09,.96,.39,.75,1.13-.11,.39-.12,.78-.15,1.17-.14,1.84-.13,3.68-.14,5.53,0,.6-.07,1.19-.24,1.76-.28,.95-.78,1.31-1.75,1.2-.92-.1-1.84-.07-2.76-.08-1.09-.01-2.17-.02-3.26-.08-.81-.05-.97-.24-1.01-1.03-.07-1.48,.09-2.96,.23-4.43,.07-.74,.22-.85,.95-.81,1.12,.05,2.23,.15,3.35,.23,.13,0,.26,.04,.38,.09,.23,.1,.37,.29,.34,.54-.03,.25-.18,.44-.44,.47-.33,.03-.66,.01-.99,0-.62-.04-1.25-.08-1.87-.15-.47-.05-.63,.14-.66,.6-.04,.85-.19,1.7-.16,2.56,.03,.78,.01,.82,.82,.85,1.51,.07,3.03,.05,4.54,.13,1.06,.06,1.13,.22,1.3-1.14,.02-.13,.02-.26,.02-.39,.09-2.1,.01-4.22,.21-6.32,.04-.46-.09-.63-.57-.68-1.44-.15-2.87-.37-4.31-.54-1.5-.17-3-.39-4.52-.43-.77-.02-.77-.01-.85,.72-.11,1.05-.21,2.1-.33,3.14-.29,2.68-.57,5.37-.48,8.08,.04,1.22-.08,1.14,1.12,1.12,3.23-.06,6.45,.03,9.68,.13,.83,.03,.82,.05,.82,.92,0,1.84,.14,3.68,.34,5.52,.11,.98,.27,1.96,.1,2.95-.16,.95-.55,1.34-1.48,1.4-1.08,.07-2.16,.17-3.24,.3-1.04,.13-2.09,.26-3.15,.22-.47-.02-.74-.21-.81-.68-.22-1.6-.3-3.21-.32-4.82,0-.42,.19-.73,.62-.75,1.28-.06,2.57-.08,3.85-.1,.3,0,.5,.19,.52,.49,.01,.29-.15,.5-.46,.55-.19,.03-.39,.04-.59,.05-.76,.04-1.51,.1-2.27,.12-.44,0-.58,.2-.54,.6,.06,.79,.11,1.58,.17,2.36,.07,1.05,.08,1.08,1.09,1,1.35-.1,2.68-.27,4.03-.37,1.55-.11,1.55-.09,1.47-1.63-.03-.59-.08-1.18-.14-1.77-.15-1.51-.31-3.01-.34-4.53-.02-.8-.02-.81-.83-.81-2.96,0-5.93,0-8.89-.03-.46,0-.56,.17-.56,.57-.01,3.56-.04,7.11,.25,10.66,.04,.46,.13,.91,.19,1.37,.05,.35,.23,.52,.6,.5,.62-.04,1.25-.02,1.87-.09,1.96-.21,3.92-.46,5.88-.67,.85-.09,1.7-.19,2.56-.23,.66-.03,.88,.22,.91,.86,.02,.36,0,.73,.07,1.08,.3,1.75,.54,3.51,1.02,5.23,.21,.76,.34,1.55,.19,2.34-.16,.84-.51,1.21-1.36,1.32-.95,.13-1.87,.36-2.8,.56-1.03,.23-2.06,.45-3.1,.61-.95,.14-1.12,.02-1.3-.89-.28-1.42-.53-2.85-.76-4.27-.11-.64,.03-.85,.66-.96,1.13-.2,2.27-.36,3.41-.53,.1-.01,.2-.02,.3-.01,.26,0,.44,.13,.5,.39,.07,.29-.02,.53-.31,.64-.18,.07-.38,.1-.57,.13-.71,.12-1.43,.25-2.14,.34-.48,.06-.7,.19-.57,.74,.19,.8,.29,1.62,.43,2.43,.17,.91,.17,.89,1.07,.75,1.62-.26,3.2-.77,4.84-.93,.45-.04,.65-.27,.61-.72-.03-.29-.04-.59-.09-.88-.38-2.07-.92-4.11-1.19-6.2-.09-.7-.13-.73-.88-.65-2.88,.29-5.77,.49-8.63,.96-.72,.12-.73,.12-.67,.86,.21,2.56,.52,5.11,.94,7.64,.22,1.33,.35,2.68,.82,3.95,.25,.66,.23,.66,.89,.51,1.41-.33,2.82-.67,4.23-.97,1.9-.41,3.8-.79,5.7-1.17,.7-.14,.85-.04,.9,.62,.04,.5,.17,.97,.29,1.45,.37,1.5,.85,2.97,1.4,4.42,.33,.86,.6,1.74,.62,2.68,.02,.98-.26,1.38-1.21,1.64-1.08,.3-2.13,.69-3.18,1.06-.87,.3-1.75,.58-2.64,.81-.78,.2-.97,.08-1.26-.69-.53-1.42-.84-2.9-1.26-4.36-.14-.47,.03-.77,.49-.9,1.14-.31,2.29-.62,3.43-.92,.06-.02,.13-.03,.19-.03,.33-.03,.6,.07,.67,.43,.06,.3-.1,.5-.38,.6-.19,.07-.37,.12-.56,.18-.7,.2-1.39,.41-2.09,.57-.44,.1-.52,.32-.4,.71,.27,.92,.53,1.83,.78,2.75,.12,.46,.35,.53,.8,.39,1.69-.56,3.38-1.08,5.08-1.6,.31-.09,.44-.26,.42-.56-.01-.16-.02-.33-.05-.49-.54-2.44-1.7-4.7-2.15-7.18-.04-.19-.16-.27-.36-.23-.29,.06-.58,.12-.87,.19-2.79,.63-5.58,1.27-8.37,1.88-.41,.09-.44,.25-.37,.6,.45,2.29,1.03,4.55,1.61,6.82,.36,1.44,.72,2.87,1.29,4.25,.47,1.15,.47,1.17,1.72,.8,.88-.26,1.75-.58,2.62-.88,2.11-.72,4.22-1.46,6.34-2.18,.73-.25,1.02-.06,1.15,.7,.09,.53,.29,1.01,.5,1.49,.59,1.32,1.2,2.63,1.8,3.95,.36,.81,.77,1.61,.87,2.51,.11,.93-.13,1.35-1,1.69-1.11,.43-2.15,.98-3.23,1.48-.77,.36-1.55,.72-2.35,1.02-.76,.29-.95,.19-1.34-.53-.7-1.28-1.18-2.64-1.68-4-.28-.77-.19-.95,.59-1.26,.95-.38,1.9-.74,2.85-1.11,.15-.06,.31-.12,.47-.14,.24-.04,.46,.02,.57,.28,.12,.28,.06,.53-.2,.69-.19,.12-.42,.19-.63,.28-.82,.34-1.63,.67-2.48,1.02,.31,1.1,.72,2.1,1.19,3.08,.3,.62,.32,.63,.95,.37,1.65-.66,3.19-1.56,4.87-2.15,.26-.09,.35-.3,.28-.55-.1-.35-.2-.7-.33-1.03-.85-2.17-2.01-4.21-2.79-6.41-.15,.02-.25,.02-.34,.05-2.87,.96-5.76,1.86-8.57,2.98-.76,.3-.78,.32-.49,1.14,.76,2.14,1.5,4.28,2.32,6.4,.58,1.5,1.19,3,2.01,4.39,.34,.59,.35,.6,.97,.27,2.94-1.55,6.02-2.82,9.02-4.24,.15-.07,.3-.15,.45-.2,.29-.09,.51,0,.64,.29,.87,2.11,2.08,4.03,3.31,5.93,.39,.61,.74,1.24,.91,1.96,.22,.95,.04,1.4-.83,1.86-.99,.53-1.93,1.13-2.87,1.74-.78,.5-1.56,.99-2.39,1.38-.72,.34-.88,.31-1.3-.34-.81-1.24-1.53-2.53-2.2-3.86-.35-.7-.29-.88,.4-1.26,.92-.5,1.86-.99,2.79-1.47,.14-.08,.3-.15,.45-.19,.24-.05,.46,0,.58,.24,.12,.23,.09,.46-.09,.63-.14,.13-.32,.23-.49,.32-.61,.33-1.22,.65-1.82,.99-.72,.39-.73,.4-.36,1.08,.39,.72,.8,1.44,1.22,2.14,.39,.66,.41,.66,1.06,.31,1.53-.83,2.94-1.87,4.51-2.64,.34-.17,.37-.43,.24-.74-.29-.7-.66-1.36-1.07-2-.93-1.44-1.78-2.92-2.59-4.43-.37-.69-.37-.7-1.09-.35-2.67,1.28-5.33,2.58-8.01,3.84-.41,.19-.47,.34-.28,.73,.67,1.36,1.3,2.73,1.97,4.09,.96,1.95,1.95,3.88,3.12,5.72,1,1.57,.72,1.37,2.24,.6,.41-.21,.8-.46,1.19-.71,2.06-1.29,4.13-2.59,6.19-3.88,.22-.14,.44-.29,.68-.4,.47-.22,.88-.13,1.05,.35,.23,.64,.66,1.13,1.01,1.68,.77,1.19,1.65,2.3,2.57,3.38,.56,.65,1.05,1.36,1.32,2.18,.29,.87,.14,1.36-.62,1.87-.93,.63-1.79,1.34-2.66,2.04-.77,.62-1.54,1.23-2.39,1.75-.44,.27-.79,.23-1.11-.18-1.01-1.26-1.89-2.61-2.81-3.94-.23-.32-.19-.64,.12-.86,1.05-.73,2.12-1.45,3.18-2.16,.3-.2,.58-.12,.76,.17,.16,.25,.1,.51-.13,.7-.15,.13-.32,.24-.48,.35-.6,.41-1.18,.83-1.79,1.23-.33,.22-.45,.42-.17,.78,.56,.73,1.06,1.51,1.61,2.25,.42,.57,.44,.56,1,.18,1.47-1,2.77-2.23,4.28-3.18,.28-.18,.28-.41,.14-.68-.28-.56-.62-1.09-1-1.58-1.18-1.5-2.42-2.95-3.41-4.59-.21-.35-.41-.32-.72-.13-2.54,1.58-5.14,3.08-7.6,4.78-.62,.43-.61,.44-.24,1.06,1.57,2.67,3.31,5.22,5.07,7.77,.49,.71,1.09,1.32,1.64,1.97,.34,.4,.56,.39,.95,.05,2.51-2.19,5.23-4.1,7.85-6.15,.1-.08,.2-.17,.31-.24,.47-.3,.66-.27,.94,.23,.38,.67,.87,1.24,1.39,1.79,.95,1,1.92,1.99,2.88,2.99,.57,.59,1.15,1.18,1.55,1.92,.46,.84,.37,1.41-.34,2.01-.91,.77-1.72,1.63-2.55,2.47-.61,.61-1.21,1.22-1.89,1.74-.66,.51-.82,.5-1.43-.06-1.1-1-2.03-2.16-2.98-3.3-.45-.54-.42-.76,.13-1.24,.79-.7,1.59-1.38,2.39-2.06,.12-.11,.25-.22,.39-.29,.22-.11,.45-.11,.63,.08,.21,.22,.23,.48,.03,.71-.15,.18-.33,.33-.5,.48-.57,.5-1.13,1.01-1.71,1.5-.26,.22-.27,.41-.05,.66,.6,.66,1.16,1.35,1.77,1.99,.62,.65,.65,.65,1.31,.03,1.13-1.06,2.23-2.15,3.37-3.19,.68-.63,.71-.63,.15-1.33-1.63-2.03-3.66-3.67-5.28-5.77-2.68,2.14-5.29,4.24-7.94,6.35,.05,.11,.09,.24,.17,.34,2.21,2.78,4.34,5.64,6.87,8.15,1.8,1.79,1.18,1.82,3.13,.02,1.98-1.83,3.84-3.79,5.75-5.7,.16-.16,.32-.34,.5-.48,.43-.33,.78-.32,1.11,.11,.2,.26,.4,.52,.65,.74,1.34,1.16,2.62,2.41,4.06,3.45,.64,.46,1.23,.99,1.67,1.66,.53,.8,.51,1.36-.13,2.05-.76,.82-1.45,1.7-2.14,2.58-.59,.75-1.18,1.5-1.88,2.16-.54,.51-.7,.53-1.27,.09-1.2-.93-2.33-1.93-3.41-2.99-.51-.5-.51-.69-.01-1.24,.68-.76,1.39-1.5,2.09-2.24,.58-.61,.83-.69,1.12-.36,.43,.49-.03,.77-.28,1.08-.6,.73-1.33,1.35-1.89,2.19,.79,.7,1.55,1.38,2.33,2.04,.65,.55,.67,.55,1.23-.1,.94-1.1,1.84-2.24,2.79-3.33,.88-1.01,.9-1-.06-1.9-.41-.38-.84-.74-1.28-1.09-1.24-.98-2.43-2.02-3.61-3.08-.18-.17-.31-.43-.65-.46-2.39,2.35-4.88,4.63-7.13,7.18,2.66,2.77,5.31,5.38,8.16,7.78,.3,.25,.63,.47,.96,.69,.61,.4,.63,.41,1.08-.2,1.98-2.67,4.21-5.15,6.3-7.73,.54-.67,.59-.65,1.21-.09,.27,.24,.56,.46,.85,.68,1.32,.98,2.66,1.93,4.09,2.75,.83,.48,1.61,1.03,2.17,1.83,.41,.58,.45,1.15,0,1.73-.91,1.17-1.62,2.48-2.43,3.72-.34,.52-.7,1.04-1.1,1.52-.48,.59-.67,.61-1.34,.21-1.29-.79-2.49-1.72-3.7-2.63-.51-.38-.53-.56-.16-1.07,.51-.73,1.05-1.43,1.58-2.15,.2-.26,.38-.54,.6-.79,.21-.24,.47-.37,.77-.12,.29,.23,.26,.51,.09,.79-.1,.17-.23,.32-.34,.48-.41,.56-.79,1.14-1.23,1.67-.32,.39-.23,.6,.15,.86,.71,.48,1.39,1,2.09,1.49,.68,.47,.71,.47,1.2-.25,.89-1.31,1.74-2.64,2.63-3.94,.47-.68,.49-.73-.13-1.28-.22-.2-.45-.39-.69-.55-1.89-1.3-3.92-2.4-5.73-3.95-2.15,2.7-4.26,5.34-6.41,8.04,.12,.09,.23,.16,.33,.25,2.43,2.07,4.99,3.99,7.57,5.87,.69,.5,1.47,.88,2.19,1.33,.34,.22,.57,.17,.83-.15,.55-.7,1.03-1.45,1.51-2.2,1.25-1.97,2.5-3.95,3.75-5.92,.12-.19,.24-.4,.38-.57,.38-.47,.74-.53,1.16-.14,.54,.5,1.18,.83,1.82,1.17,1.14,.6,2.28,1.17,3.43,1.74,.77,.38,1.53,.77,2.17,1.35,.76,.68,.85,1.21,.34,2.09-.58,1-1.06,2.05-1.55,3.08-.38,.8-.77,1.6-1.26,2.35-.43,.65-.58,.7-1.3,.39-1.4-.6-2.68-1.41-3.97-2.19-.57-.34-.61-.54-.28-1.13,.53-.95,1.09-1.88,1.63-2.82,.21-.36,.42-.71,.92-.49,.36,.16,.38,.44,.06,1.01-.33,.61-.69,1.2-1.02,1.8-.14,.25-.36,.48-.34,.88,.76,.44,1.53,.94,2.35,1.34,1.19,.59,.94,.69,1.59-.46,.79-1.4,1.37-2.92,2.25-4.28,.26-.4,.04-.61-.25-.81-.71-.48-1.46-.9-2.22-1.28-1.44-.72-2.93-1.36-4.28-2.25-.39-.26-.57-.12-.78,.21-1.6,2.53-3.31,4.99-4.78,7.6-.33,.59-.34,.62,.25,.99,2.15,1.34,4.3,2.68,6.48,3.98,1.19,.71,2.41,1.35,3.7,1.86,.7,.28,.71,.28,1-.39,1.34-3.04,2.96-5.95,4.43-8.93,.06-.12,.11-.24,.18-.35,.21-.33,.48-.46,.82-.19,.34,.28,.72,.46,1.12,.62,1.68,.68,3.32,1.43,5.06,1.95,.73,.22,1.42,.51,2.04,.97,.82,.62,.97,1.11,.55,2.04-.42,.97-.76,1.96-1.09,2.96-.32,.93-.63,1.87-1.08,2.75-.33,.65-.51,.76-1.16,.55-1.47-.48-2.91-1.06-4.3-1.73-.59-.29-.65-.47-.38-1.1,.42-1,.86-1.99,1.3-2.99,.07-.15,.13-.3,.23-.43,.15-.2,.37-.28,.61-.16,.22,.11,.38,.3,.33,.55-.04,.22-.14,.44-.23,.65-.35,.84-.7,1.69-1.07,2.55,.98,.54,1.98,.87,2.96,1.26,.73,.29,.73,.26,1.06-.48,.68-1.57,1.1-3.24,1.86-4.78,.2-.4-.02-.62-.34-.79-.64-.35-1.31-.62-1.99-.85-1.56-.52-3.09-1.13-4.6-1.77-.94-.4-.94-.41-1.39,.55-1.09,2.28-2.19,4.57-3.27,6.86-.22,.46-.56,.87-.68,1.4,3.39,1.71,6.76,3.36,10.28,4.65,2.03,.74,1.72,.75,2.44-1.09,.94-2.42,1.74-4.89,2.61-7.34,.15-.43,.29-.88,.49-1.29,.25-.54,.59-.66,1.11-.38,.26,.15,.53,.27,.81,.35,1.61,.48,3.2,1,4.86,1.28,.88,.15,1.74,.39,2.51,.85,.87,.53,1.05,1.01,.79,1.99-.21,.76-.42,1.52-.59,2.29-.28,1.22-.51,2.45-.93,3.63-.26,.72-.45,.85-1.19,.65-1.46-.38-2.92-.8-4.36-1.24-.63-.19-.71-.37-.52-1.04,.31-1.07,.66-2.14,.99-3.21,.12-.37,.3-.71,.76-.57,.47,.14,.42,.5,.31,.88-.25,.82-.47,1.64-.74,2.46-.12,.37-.04,.53,.34,.63,.89,.23,1.77,.52,2.66,.76,.72,.19,.73,.18,.94-.53,.5-1.67,.74-3.41,1.33-5.05,.12-.33-.02-.53-.28-.64-.48-.2-.98-.4-1.48-.53-1.94-.51-3.92-.84-5.81-1.54-.44-.16-.58,.07-.7,.42-.99,2.79-2.08,5.54-2.93,8.38-.21,.72-.21,.72,.48,.99,2.64,1.01,5.35,1.84,8.04,2.68,1.01,.32,2.03,.55,3.07,.71,.8,.12,.82,.11,.97-.66,.61-3.1,1.46-6.14,2.2-9.21,.31-1.27,.31-1.26,1.56-.96,1.7,.41,3.43,.63,5.16,.79,.95,.09,1.9,.23,2.79,.59,.98,.4,1.21,.8,1.06,1.83-.08,.55-.17,1.11-.24,1.66-.2,1.47-.25,2.95-.59,4.4-.18,.75-.32,.86-1.09,.82-1.55-.07-3.05-.46-4.57-.77-.59-.12-.68-.32-.58-.93,.18-1.04,.38-2.07,.59-3.1,.08-.4,.09-.92,.7-.89,.41,.02,.52,.36,.39,1.14-.15,.9-.32,1.79-.49,2.76,1.09,.2,2.08,.41,3.08,.57,.84,.13,.87,.08,1.02-.75,.3-1.65,.33-3.34,.73-4.98,.1-.42-.09-.63-.46-.72-.73-.2-1.47-.36-2.22-.45-1.66-.22-3.34-.3-4.98-.7-.82-.2-.84-.19-1.03,.66-.69,3.01-1.37,6.02-2.06,9.05,.09,.13,.25,.18,.41,.22,3.69,.84,7.35,1.79,11.13,2.17,1.62,.16,1.34,.24,1.59-1.24,.3-1.78,.43-3.59,.64-5.39,.15-1.31,.3-2.62,.48-3.92,.11-.8,.38-.98,1.13-.76,.42,.12,.84,.13,1.27,.16,1.87,.11,3.75,.16,5.63,.16,.6,0,1.18,.08,1.75,.28,.75,.26,1.06,.69,1.01,1.5-.1,1.58-.03,3.16-.07,4.74-.01,.53-.06,1.05-.12,1.57-.09,.73-.18,.82-.93,.86-1.52,.07-3.03-.01-4.53-.21-.71-.09-.84-.25-.79-.96,.06-.95,.14-1.9,.22-2.85,.02-.23,.05-.46,.08-.69,.04-.3,.22-.48,.53-.48,.37,0,.51,.25,.52,.59,0,.16,0,.33-.02,.49-.05,.72-.08,1.45-.15,2.17-.05,.44,.04,.68,.55,.7,.82,.03,1.64,.13,2.46,.15,1,.03,1.03,0,1.06-1.04,.02-.72,.01-1.45,.03-2.17,.02-.89-.07-1.78,.11-2.66,.09-.43-.13-.62-.5-.69-.26-.05-.52-.08-.78-.09-2.2-.08-4.41-.14-6.61-.23-.45-.02-.66,.09-.71,.56-.32,2.88-.74,5.74-.98,8.63-.08,.95-.05,.97,.92,1.07,1.83,.19,3.66,.42,5.5,.57,1.97,.16,3.94,.33,5.92,.21,.76-.05,.76-.05,.75-.8-.01-1.38-.04-2.77-.02-4.15,.03-1.97,.08-3.95,.13-5.92,.02-.67,.16-.85,.69-.8,1.98,.15,3.94-.12,5.9-.29,1.04-.09,2.08-.35,3.14-.07,.87,.23,1.24,.6,1.27,1.51,.04,1.35,.24,2.69,.39,4.03,.08,.72,.1,1.45,.1,2.17,0,.73-.13,.89-.83,.97-1.5,.19-3.01,.3-4.53,.28-.7-.01-.82-.11-.86-.79-.07-1.12-.1-2.24-.14-3.35,0-.1,0-.2,0-.3,.02-.31,.19-.49,.49-.52,.31-.03,.49,.17,.56,.45,.05,.19,.05,.39,.06,.59,.03,.72,.07,1.45,.07,2.17,0,.45,.14,.67,.63,.63,.89-.08,1.78-.1,2.66-.19,.75-.08,.77-.11,.71-.85-.12-1.51-.37-3.02-.37-4.52,0-1.23-.24-1.24-1.32-1.23-.23,0-.46,0-.69,.03-2.06,.23-4.12,.44-6.2,.5-.43,.01-.57,.17-.57,.59,0,3.06,0,6.12-.01,9.18,0,.5,.26,.51,.62,.51,2.24-.02,4.48,.03,6.71-.06,1.58-.07,3.16-.08,4.73-.31,1.06-.16,1.06-.14,1.04-1.22-.03-1.75-.38-3.47-.53-5.2-.12-1.44-.31-2.88-.45-4.32-.09-.91,.1-1.11,1-1.13,.2,0,.4,0,.59-.04,1.78-.33,3.58-.52,5.32-1.03,.76-.22,1.54-.35,2.34-.28,.99,.08,1.39,.46,1.58,1.43,.2,1.07,.44,2.12,.67,3.19,.2,.93,.45,1.86,.51,2.81,.06,.85,0,.96-.85,1.14-1.45,.29-2.91,.54-4.37,.78-.62,.1-.83-.06-.93-.7-.18-1.1-.32-2.21-.5-3.32-.06-.39-.07-.76,.42-.84,.48-.08,.62,.25,.68,.65,.13,.85,.28,1.69,.4,2.54,.05,.32,.19,.49,.52,.43,1.04-.18,2.07-.37,3.11-.55,.29-.05,.38-.22,.34-.49-.02-.16-.03-.33-.06-.49-.29-1.65-.78-3.26-.96-4.94-.03-.32-.21-.47-.52-.48-.49,0-.99,.02-1.47,.13-1.96,.42-3.91,.91-5.91,1.14-.61,.07-.64,.13-.55,.88,.32,2.81,.5,5.64,.94,8.44,.15,.94,.14,.96,1.11,.87,2.36-.23,4.71-.49,7.05-.88,1.46-.25,2.94-.38,4.34-.88,.67-.24,.69-.23,.51-.9-.8-2.96-1.32-5.97-1.95-8.96-.09-.42-.19-.84-.25-1.26-.04-.29,.07-.51,.41-.56,2.26-.33,4.39-1.13,6.52-1.9,.68-.25,1.39-.42,2.12-.42,.97,0,1.41,.3,1.64,1.22,.25,.99,.61,1.95,.95,2.91,.34,.96,.7,1.92,.9,2.92,.17,.83,.11,.95-.69,1.24-1.42,.52-2.9,.84-4.36,1.26-.43,.12-.75,0-.87-.4-.36-1.23-.68-2.47-1-3.72-.08-.33,.09-.58,.43-.67,.31-.08,.5,.11,.62,.37,.07,.15,.1,.31,.14,.47,.19,.7,.41,1.39,.57,2.09,.11,.47,.3,.67,.82,.49,.78-.26,1.58-.45,2.37-.68,.86-.26,.85-.26,.61-1.15-.43-1.59-1.12-3.09-1.46-4.71-.08-.39-.31-.56-.7-.5-.26,.04-.52,.08-.77,.14-2.27,.56-4.39,1.6-6.7,2.03-.31,.06-.35,.25-.3,.5,.04,.19,.09,.38,.13,.58,.63,2.82,1.27,5.65,1.88,8.47,.09,.42,.22,.54,.65,.44,1.6-.39,3.21-.7,4.81-1.1,1.82-.45,3.67-.8,5.42-1.49,2.31-.91,2.12-.34,1.38-2.76-.63-2.07-1.42-4.1-2.13-6.15-.25-.71-.5-1.43-.71-2.16-.18-.63,0-.96,.63-1.05,.67-.09,1.26-.36,1.86-.63,1.2-.53,2.4-1.08,3.59-1.64,.72-.33,1.44-.66,2.21-.85,1.18-.29,1.73,0,2.16,1.11,.39,1.02,.89,1.98,1.36,2.96,.4,.83,.81,1.66,1.09,2.54,.23,.72,.2,.84-.45,1.19-1.36,.75-2.82,1.26-4.27,1.79-.6,.22-.79,.1-1.05-.53-.42-1.04-.82-2.08-1.22-3.12-.02-.06-.06-.12-.08-.18-.11-.34,0-.59,.32-.72,.29-.12,.52,0,.66,.26,.11,.2,.19,.42,.28,.63,.27,.67,.55,1.34,.8,2.02,.11,.29,.24,.45,.58,.32,.98-.37,1.97-.73,2.92-1.21,.3-.15,.35-.36,.22-.64-.16-.36-.31-.73-.47-1.09-.54-1.2-1.1-2.39-1.62-3.6-.32-.75-.38-.81-1.16-.54-.53,.18-1.05,.38-1.56,.61-1.68,.75-3.31,1.62-5.05,2.24-.41,.15-.37,.37-.26,.68,.97,2.8,1.83,5.63,2.92,8.38,.3,.74,.31,.77,1.06,.51,2.49-.86,4.98-1.71,7.41-2.71,1.16-.47,2.31-.96,3.39-1.59,.68-.39,.69-.39,.31-1.11-1.54-2.95-2.81-6.02-4.23-9.02-.04-.09-.08-.18-.12-.27-.16-.37-.05-.62,.33-.78,2.03-.8,3.87-1.95,5.69-3.13,.72-.47,1.45-.91,2.29-1.12,.88-.22,1.4-.02,1.81,.77,.68,1.28,1.52,2.47,2.26,3.71,.35,.59,.68,1.2,.99,1.82,.21,.41,.13,.76-.28,1.02-1.35,.88-2.76,1.66-4.2,2.39-.38,.2-.72,.14-.93-.25-.6-1.1-1.18-2.2-1.76-3.31-.15-.29-.12-.58,.2-.77,.33-.19,.57-.04,.75,.24,.11,.16,.2,.34,.29,.51,.31,.58,.62,1.16,.94,1.74,.35,.64,.36,.64,1.03,.28,.72-.4,1.44-.8,2.14-1.22,.66-.39,.65-.41,.31-1.06-.82-1.54-1.88-2.94-2.63-4.52-.19-.4-.54-.33-.85-.19-.67,.29-1.3,.64-1.91,1.04-1.43,.94-2.92,1.78-4.43,2.6-.68,.37-.69,.36-.34,1.08,1.16,2.4,2.32,4.8,3.49,7.19,.21,.43,.28,.93,.64,1.28,3.28-1.5,6.46-3.07,9.55-4.83,.46-.26,.9-.55,1.32-.86,.66-.48,.67-.5,.27-1.25-.39-.72-.82-1.43-1.25-2.12-1.23-1.98-2.48-3.96-3.71-5.94-.1-.17-.22-.33-.31-.5-.25-.53-.15-.87,.4-1.1,.49-.21,.91-.52,1.35-.81,1.2-.81,2.37-1.67,3.46-2.62,.72-.62,1.49-1.2,2.42-1.48,.86-.26,1.29-.15,1.78,.59,.7,1.04,1.52,1.99,2.29,2.97,.48,.62,.96,1.26,1.39,1.91,.49,.75,.47,.94-.24,1.48-1.16,.87-2.35,1.7-3.54,2.52-.62,.43-.81,.38-1.28-.28-.59-.84-1.16-1.68-1.73-2.53-.42-.62-.43-.87-.08-1.11,.33-.24,.55-.12,1,.48,.56,.76,1.02,1.6,1.7,2.33,.89-.63,1.76-1.22,2.61-1.85,.6-.44,.59-.46,.17-1.08-.97-1.41-2.15-2.66-3.07-4.11-.26-.41-.56-.36-.92-.16-.81,.45-1.55,.99-2.26,1.59-1.11,.94-2.27,1.8-3.48,2.6-.21,.14-.49,.22-.59,.53,1.62,2.62,3.17,5.29,4.92,7.84,.55,.8,.45,.73,1.21,.29,2.55-1.51,4.99-3.19,7.44-4.85,.79-.54,1.48-1.2,2.21-1.82,.39-.33,.39-.57,.05-.95-2.19-2.5-4.11-5.23-6.16-7.84-.61-.78-.59-.77,.19-1.33,.5-.37,.99-.77,1.44-1.19,.99-.92,1.95-1.87,2.92-2.81,.62-.59,1.23-1.2,1.99-1.61,.86-.47,1.39-.4,2.01,.33,.84,.98,1.79,1.84,2.68,2.77,.57,.59,1.11,1.22,1.65,1.83,.34,.38,.35,.73-.01,1.13-1.1,1.19-2.35,2.21-3.59,3.24-.38,.31-.73,.22-1.03-.14-.77-.9-1.54-1.8-2.31-2.7-.24-.29-.33-.59,0-.86,.33-.27,.61-.11,.85,.16,.13,.15,.26,.3,.39,.45,.46,.52,.92,1.03,1.36,1.56,.24,.29,.45,.31,.74,.05,.71-.64,1.45-1.24,2.14-1.9,.37-.36,.35-.59,.02-.97-1.17-1.34-2.54-2.49-3.65-3.89-.24-.3-.52-.23-.78-.02-.36,.28-.74,.56-1.07,.87-1.2,1.13-2.37,2.28-3.57,3.41-.44,.42-.92,.8-1.39,1.21,2.15,2.69,4.24,5.31,6.35,7.95,.12-.07,.23-.13,.33-.21,2.74-2.16,5.54-4.26,8.01-6.72,1.93-1.92,1.97-1.3,.06-3.35-1.77-1.9-3.66-3.7-5.49-5.54-.16-.16-.33-.32-.48-.5-.49-.56-.46-.83,.09-1.3,.23-.19,.46-.37,.65-.59,1.2-1.36,2.45-2.67,3.52-4.13,.47-.64,1.01-1.22,1.69-1.64,.71-.44,1.29-.41,1.88,.15,.96,.91,2.02,1.69,3.04,2.51,.64,.52,1.27,1.05,1.84,1.64,.32,.33,.41,.66,.1,1.05-.99,1.28-2.06,2.48-3.19,3.64-.33,.34-.68,.36-1.04,.04-.87-.81-1.73-1.62-2.6-2.42-.27-.25-.42-.55-.15-.86,.32-.37,.64-.18,.94,.08,.15,.13,.29,.27,.44,.4,.51,.47,1.02,.93,1.53,1.4,.19,.17,.36,.29,.58,.05,.8-.9,1.63-1.77,2.37-2.79-.43-.38-.79-.72-1.16-1.03-.86-.72-1.73-1.42-2.58-2.14-1.26-1.07-1.26-1.08-2.4,.19-.02,.02-.05,.05-.07,.07-1.31,1.61-2.61,3.23-4.04,4.73-.29,.31-.18,.49,.06,.73,2.11,2.13,4.15,4.33,6.35,6.36,.52,.48,.54,.48,1.02,.01,2.41-2.34,4.76-4.74,6.96-7.27,.53-.61,1.01-1.27,1.41-2.02-2.85-2.09-5.43-4.38-8.1-6.58-.15-.13-.31-.24-.46-.38-.32-.3-.38-.63,0-.92,.58-.46,.95-1.09,1.39-1.66,.84-1.1,1.59-2.26,2.29-3.46,.45-.77,.95-1.51,1.66-2.07,.79-.63,1.25-.66,2.04-.08,.95,.71,1.98,1.3,2.98,1.94,.72,.46,1.43,.94,2.11,1.46,.66,.51,.68,.68,.23,1.4-.77,1.27-1.69,2.43-2.57,3.62-.39,.53-.62,.57-1.15,.19-.94-.67-1.86-1.37-2.78-2.05-.08-.06-.15-.13-.22-.2-.17-.2-.2-.41-.05-.63,.17-.24,.4-.35,.68-.2,.17,.09,.33,.21,.49,.33,.61,.44,1.24,.87,1.84,1.34,.34,.27,.55,.22,.79-.13,.5-.73,1.04-1.44,1.55-2.17,.45-.65,.44-.66-.22-1.13-1.39-1-2.92-1.8-4.25-2.87-.35-.28-.6-.14-.85,.13-.58,.64-1.08,1.33-1.52,2.06-.83,1.38-1.7,2.74-2.71,4.01-.45,.57-.45,.59,.15,1.07,2.03,1.62,4.07,3.23,6.11,4.85,.43,.34,.84,.69,1.29,1.06,2.43-2.91,4.74-5.82,6.8-8.92,.24-.36,.4-.76,.64-1.11,.28-.41,.2-.68-.2-.97-.69-.5-1.4-.98-2.13-1.44-2.06-1.3-4.12-2.6-6.17-3.91-.9-.58-.9-.78-.27-1.6,.34-.44,.62-.93,.88-1.42,.64-1.22,1.25-2.46,1.88-3.69,.39-.76,.77-1.53,1.36-2.16,.63-.67,1.16-.77,1.93-.31,1.08,.64,2.22,1.14,3.35,1.69,.74,.36,1.48,.72,2.17,1.17,.67,.44,.7,.56,.4,1.29-.59,1.4-1.4,2.68-2.19,3.98-.35,.57-.54,.61-1.13,.28-.98-.55-1.94-1.12-2.9-1.69-.14-.08-.28-.18-.38-.31-.13-.16-.14-.37-.03-.56,.11-.19,.28-.27,.49-.26,.27,.02,.49,.18,.72,.31,.66,.37,1.32,.73,1.97,1.13,.33,.2,.52,.16,.71-.18,.44-.81,.91-1.6,1.34-2.42,.35-.67,.33-.68-.31-1.05-1.51-.87-3.15-1.5-4.63-2.43-.26-.16-.5-.13-.69,.12-.12,.16-.23,.32-.34,.49-1.32,2.12-2.17,4.48-3.56,6.62,2.77,1.76,5.4,3.56,8.16,5.16,.4,.23,.62,.18,.86-.22,1.43-2.29,2.88-4.56,4.21-6.91,.63-1.12,1.21-2.26,1.72-3.44,.2-.46,.15-.68-.33-.89-3.03-1.3-5.9-2.9-8.85-4.36-.97-.48-.96-.48-.44-1.49,.06-.12,.12-.24,.17-.36,.69-1.71,1.47-3.38,2-5.15,.24-.79,.55-1.55,1.06-2.21,.56-.72,1.08-.89,1.9-.53,1.3,.57,2.66,.96,3.98,1.46,.64,.24,1.29,.5,1.91,.8,.61,.3,.68,.47,.47,1.1-.48,1.47-1.06,2.9-1.73,4.3-.28,.59-.48,.65-1.1,.39-1.03-.43-2.05-.89-3.08-1.34-.09-.04-.18-.08-.26-.14-.26-.16-.35-.4-.22-.68,.12-.29,.37-.36,.66-.29,.22,.06,.43,.15,.64,.24,.67,.28,1.33,.56,1.99,.86,.35,.16,.55,.08,.69-.27,.33-.86,.7-1.7,1.02-2.57,.26-.69,.25-.72-.47-1-1.35-.53-2.71-1-4.06-1.53-1.33-.52-1.33-.54-1.91,.76-.01,.03-.03,.06-.04,.09-.8,2.09-1.49,4.22-2.45,6.24-.18,.38,.02,.53,.32,.67,2.89,1.39,5.79,2.78,8.67,4.17,.07-.07,.13-.11,.15-.16,1.57-3.19,3.12-6.38,4.42-9.7,.18-.46,.33-.93,.46-1.4,.21-.73,.21-.76-.44-1.05-.75-.33-1.52-.62-2.3-.9-2.35-.84-4.71-1.67-7.06-2.52-.81-.29-.9-.57-.54-1.33,.12-.27,.23-.54,.32-.83,.49-1.6,.99-3.21,1.28-4.86,.15-.88,.4-1.73,.9-2.49,.5-.76,.98-.93,1.85-.66,1.13,.35,2.29,.59,3.45,.85,.9,.2,1.79,.42,2.66,.74,.42,.16,.69,.39,.58,.88-.36,1.61-.86,3.17-1.34,4.75-.13,.4-.4,.57-.84,.43-1.16-.37-2.32-.72-3.48-1.08-.36-.11-.58-.35-.44-.74,.14-.4,.45-.4,.81-.29,.82,.26,1.65,.46,2.46,.74,.41,.14,.6,.06,.71-.36,.24-.89,.52-1.77,.76-2.66,.18-.67,.16-.7-.52-.88-1.33-.36-2.68-.67-4.02-1.02-1.7-.44-1.69-.45-2.21,1.29-.02,.06-.05,.12-.06,.19-.44,1.96-.85,3.92-1.53,5.82-.16,.44,.11,.51,.39,.61,2.79,.99,5.54,2.08,8.38,2.94,.77,.23,.78,.23,1.06-.51,.65-1.72,1.29-3.45,1.81-5.22,.56-1.92,1.32-3.79,1.57-5.8,.11-.87,.14-.86-.68-1.03-3.26-.65-6.46-1.54-9.68-2.33-.8-.2-.85-.32-.58-1.07,.09-.25,.16-.5,.22-.76,.38-1.67,.6-3.37,.75-5.07,.08-.89,.23-1.76,.55-2.6,.41-1.07,.87-1.3,1.98-1.12,.81,.14,1.63,.24,2.44,.34,1.14,.14,2.29,.21,3.42,.48,.88,.21,.96,.31,.9,1.21-.1,1.45-.44,2.86-.73,4.28-.16,.76-.3,.85-1.1,.72-1.07-.18-2.13-.39-3.2-.6-.13-.02-.26-.06-.37-.12-.22-.12-.35-.3-.29-.57,.06-.25,.21-.42,.47-.43,.19,0,.39,.03,.58,.06,.78,.14,1.56,.27,2.33,.43,.37,.08,.55-.04,.61-.42,.15-.88,.34-1.74,.48-2.62,.13-.81,.07-.87-.77-1.01-1.66-.27-3.34-.35-4.98-.71-.43-.09-.62,.09-.72,.45-.09,.32-.17,.64-.23,.96-.46,2.32-.46,4.71-1.08,7,.15,.07,.23,.13,.32,.15,3.07,.71,6.15,1.42,9.22,2.14,.36,.09,.48-.09,.54-.37,.2-.83,.41-1.66,.58-2.5,.61-3,1.4-5.96,1.6-9.03,.06-.94,.07-.95-.88-1.13-2.07-.41-4.18-.46-6.27-.76-1.14-.16-2.29-.27-3.43-.42-.78-.1-1-.41-.77-1.12,.14-.45,.16-.9,.17-1.36,.06-1.94,.12-3.88,.17-5.82,.01-.5,.09-.99,.26-1.45,.28-.78,.77-1.14,1.58-1.04,1.22,.15,2.43,.07,3.65,.09,.82,.02,1.65,.02,2.47,.08,.83,.06,.96,.22,.99,1.03,.05,1.48-.03,2.96-.21,4.43-.09,.72-.2,.85-.94,.81-1.08-.05-2.17-.15-3.25-.23-.16-.01-.33-.05-.48-.11-.25-.09-.34-.3-.31-.55,.04-.25,.18-.43,.45-.45,.23-.02,.46-.01,.69,0,.69,.05,1.38,.08,2.07,.16,.5,.06,.73-.1,.75-.63,.02-.86,.1-1.71,.11-2.56,.01-.75-.01-.79-.75-.82-1.74-.08-3.49-.11-5.23-.17-.32-.01-.5,.15-.56,.44-.06,.29-.09,.59-.1,.88-.08,2.24-.14,4.47-.24,6.71-.02,.42,.16,.49,.51,.53,.75,.08,1.5,.19,2.25,.28,2.06,.23,4.12,.5,6.18,.67,1.33,.11,1.19,.28,1.36-1.11,.22-1.86,.46-3.73,.58-5.6,.12-1.87,.35-3.74,.16-5.62-.07-.7-.08-.72-.75-.71-3.23,.06-6.45-.03-9.68-.12-1.18-.03-1.18-.02-1.15-1.15,0-.16,0-.33,0-.49-.17-1.9-.17-3.81-.47-5.7-.11-.69-.14-1.38,0-2.06,.21-1.02,.56-1.34,1.59-1.4,1.45-.08,2.88-.27,4.32-.43,.59-.06,1.18-.08,1.77-.08,.79,0,.92,.1,1.02,.89,.18,1.5,.32,3.01,.28,4.53-.02,.64-.16,.81-.83,.84-1.12,.06-2.24,.07-3.36,.09-.38,0-.77-.02-.76-.53,.01-.5,.41-.52,.78-.54,.82-.04,1.64-.11,2.47-.12,.43,0,.59-.19,.56-.6-.06-.89-.1-1.77-.19-2.66-.07-.74-.1-.75-.83-.73-1.75,.03-3.46,.41-5.21,.41-.39,0-.51,.26-.52,.59,0,.56-.02,1.12,.04,1.68,.22,1.9,.36,3.8,.46,5.71,.04,.74,.04,.75,.78,.75,2.96,0,5.93,0,8.89,.03,.51,0,.61-.17,.61-.62,.02-3.29,.02-6.58-.21-9.87-.05-.69-.17-1.37-.25-2.06-.04-.39-.22-.58-.64-.55-.66,.05-1.32,.04-1.97,.11-2.62,.28-5.23,.58-7.85,.86-1.16,.12-1.28,0-1.32-1.16,0-.1-.02-.2-.03-.29-.32-1.75-.5-3.52-.99-5.23-.25-.86-.41-1.73-.32-2.63,.09-.93,.49-1.37,1.41-1.49,.88-.12,1.75-.32,2.61-.52,1.15-.26,2.3-.57,3.48-.67,.74-.06,.83,.02,1.02,.75,.37,1.47,.59,2.97,.8,4.47,.09,.66-.02,.82-.68,.93-1.13,.2-2.27,.36-3.41,.53-.1,.01-.2,.02-.3,0-.27-.02-.42-.19-.48-.43-.06-.25,.04-.47,.27-.57,.21-.09,.44-.13,.66-.16,.71-.12,1.42-.28,2.14-.33,.58-.05,.62-.34,.53-.79-.16-.84-.29-1.69-.46-2.52-.15-.75-.18-.75-.91-.63-1.69,.27-3.33,.79-5.04,.97-.41,.04-.57,.29-.54,.68,.03,.43,.04,.86,.13,1.28,.42,2,.93,3.97,1.14,6.01,.06,.61,.46,.53,.86,.49,2.88-.3,5.77-.49,8.63-.96,.79-.13,.81-.14,.72-.93-.19-1.8-.35-3.6-.62-5.39-.28-1.82-.43-3.66-.93-5.44-.39-1.4-.4-1.39-1.84-1.03-3.03,.77-6.11,1.31-9.17,1.95-.78,.16-.87,.07-.97-.76-.05-.36-.12-.71-.2-1.06-.38-1.64-.91-3.23-1.5-4.8-.3-.8-.55-1.62-.55-2.49,0-1.08,.22-1.41,1.26-1.7,1.05-.29,2.06-.67,3.09-1.03,.81-.28,1.62-.55,2.45-.77,1.02-.28,1.23-.18,1.53,.8,.42,1.35,.8,2.71,1.16,4.08,.18,.69,.06,.87-.63,1.07-1.04,.3-2.09,.57-3.14,.84-.16,.04-.32,.06-.49,.05-.22,0-.38-.13-.44-.33-.07-.23-.04-.48,.19-.61,.2-.11,.42-.18,.64-.24,.73-.21,1.45-.43,2.19-.6,.43-.1,.51-.29,.38-.7-.28-.91-.54-1.83-.78-2.75-.12-.46-.33-.56-.78-.4-1.31,.45-2.64,.82-3.93,1.3-.52,.2-1.31,0-1.53,.67-.18,.56,.09,1.17,.27,1.73,.66,2.07,1.47,4.09,1.95,6.21,.01,.06,.08,.1,.16,.19,3.24-.74,6.5-1.48,9.83-2.24-.23-1.39-.52-2.77-.88-4.13-.62-2.35-1.04-4.76-1.95-7.03-.67-1.68-.23-1.68-2.21-1.07-2.29,.71-4.54,1.56-6.81,2.34-.62,.22-1.24,.44-1.87,.63-.63,.19-.95,0-1.06-.63-.1-.59-.32-1.14-.56-1.68-.56-1.26-1.15-2.51-1.72-3.77-.37-.81-.76-1.61-.9-2.5-.15-.96,.09-1.44,.97-1.79,1.01-.4,1.98-.89,2.96-1.36,.86-.41,1.73-.8,2.62-1.15,.77-.3,.96-.2,1.34,.51,.72,1.34,1.22,2.77,1.75,4.19,.21,.56,.12,.75-.45,.99-1.06,.44-2.14,.85-3.21,1.27-.37,.14-.74,.17-.91-.27-.15-.4,.13-.6,.46-.74,.27-.11,.55-.22,.82-.33,.55-.22,1.1-.45,1.65-.66,.29-.11,.44-.27,.31-.59-.45-1.09-.77-2.23-1.44-3.23-.13,.03-.23,.04-.32,.08-1.76,.65-3.38,1.63-5.15,2.25-.31,.11-.38,.34-.31,.63,.06,.22,.14,.44,.22,.66,.8,2.2,2.02,4.21,2.78,6.42,.13,.37,.37,.29,.63,.2,2.83-.97,5.69-1.85,8.47-2.96,.71-.29,.73-.3,.45-1.08-.77-2.17-1.53-4.34-2.36-6.49-.58-1.5-1.21-2.98-2-4.4-.25-.46-.46-.51-.92-.27-2.95,1.6-6.07,2.86-9.1,4.3-.12,.06-.24,.12-.36,.16-.33,.11-.53,.03-.69-.32-.88-1.99-1.97-3.86-3.17-5.68-.44-.66-.83-1.35-1.04-2.12-.25-.93-.05-1.45,.78-1.89,1.05-.55,2.03-1.22,3.04-1.84,.73-.45,1.46-.89,2.22-1.28,.77-.4,.92-.35,1.37,.35,.81,1.24,1.53,2.54,2.19,3.86,.33,.66,.27,.84-.36,1.19-.95,.52-1.92,1.01-2.88,1.52-.09,.05-.17,.1-.26,.13-.31,.12-.59,.09-.76-.24-.17-.34,.01-.56,.28-.74,.19-.12,.4-.23,.6-.34,.61-.33,1.21-.67,1.83-.98,.34-.17,.4-.37,.2-.7-.47-.79-.9-1.61-1.37-2.4-.38-.63-.4-.63-1.07-.27-1.5,.81-2.88,1.84-4.43,2.59-.39,.19-.42,.47-.28,.82,.29,.7,.66,1.36,1.07,2,.91,1.41,1.75,2.86,2.54,4.35,.45,.85,.37,.77,1.16,.39,2.67-1.28,5.33-2.58,8.01-3.83,.45-.21,.4-.39,.24-.74-1.49-3.15-3.02-6.29-4.76-9.31-.23-.4-.49-.78-.76-1.15-.44-.6-.46-.6-1.11-.29-.98,.47-1.88,1.09-2.8,1.66-1.9,1.19-3.79,2.37-5.7,3.54-.73,.45-.99,.34-1.37-.42-.16-.32-.35-.63-.55-.93-.89-1.31-1.8-2.6-2.84-3.79-.63-.72-1.2-1.49-1.47-2.43-.23-.81-.11-1.24,.58-1.71,1.12-.76,2.15-1.64,3.21-2.47,.62-.49,1.25-.96,1.93-1.37,.45-.27,.79-.21,1.11,.2,.99,1.23,1.85,2.56,2.75,3.86,.27,.39,.24,.74-.17,1.02-.98,.67-1.96,1.33-2.94,2-.34,.23-.68,.31-.93-.11-.23-.38,.03-.61,.31-.81,.7-.49,1.4-.99,2.11-1.46,.35-.23,.4-.45,.14-.79-.55-.74-1.06-1.51-1.61-2.25-.41-.55-.43-.54-1.01-.15-1.44,.99-2.71,2.19-4.2,3.12-.31,.2-.36,.46-.19,.76,.27,.45,.52,.92,.84,1.34,1.22,1.6,2.55,3.11,3.58,4.84,.23,.38,.45,.25,.72,.08,2.48-1.55,5.03-3.01,7.44-4.67,.24-.16,.52-.29,.67-.56-1.48-3.07-6.03-9.58-7.53-10.73-2.6,2.27-5.41,4.27-8.14,6.39-.16,.12-.31,.25-.47,.36-.37,.26-.7,.22-.9-.19-.41-.84-1.07-1.49-1.7-2.16-.91-.96-1.83-1.89-2.74-2.84-.54-.57-1.09-1.15-1.44-1.87-.37-.76-.32-1.27,.27-1.78,1.23-1.05,2.3-2.26,3.47-3.37,.41-.38,.84-.74,1.27-1.09,.35-.29,.7-.3,1.06,.02,1.23,1.1,2.26,2.39,3.31,3.65,.22,.26,.26,.56,0,.8-.98,.87-1.98,1.73-2.99,2.58-.22,.19-.5,.17-.71-.05-.25-.26-.2-.54,.04-.79,.16-.16,.34-.31,.51-.46,.52-.46,1.03-.93,1.57-1.36,.34-.27,.34-.49,.05-.8-.61-.65-1.17-1.34-1.78-1.98-.54-.57-.58-.57-1.16-.03-1.21,1.12-2.39,2.26-3.59,3.38-.52,.48-.55,.51-.08,1.12,.64,.84,1.38,1.59,2.11,2.35,.94,.97,1.94,1.88,2.76,2.96,.39,.51,.36,.66,1.05,.1,2.05-1.65,4.11-3.3,6.16-4.94,.4-.32,.81-.63,1.24-.96-.16-.22-.26-.39-.38-.54-1.55-1.92-3.09-3.86-4.68-5.74-.95-1.13-1.96-2.22-3.06-3.22-.37-.33-.62-.36-.98,0-.56,.55-1.18,1.05-1.74,1.61-1.73,1.71-3.45,3.44-5.18,5.16-.14,.14-.27,.29-.43,.41-.46,.36-.83,.33-1.17-.15-.18-.24-.36-.47-.59-.66-1.37-1.19-2.66-2.45-4.14-3.52-.64-.46-1.23-1-1.65-1.68-.5-.8-.48-1.29,.15-1.96,.86-.91,1.6-1.93,2.39-2.89,.55-.66,1.12-1.29,1.69-1.93,.33-.37,.71-.45,1.13-.12,1.27,.99,2.48,2.06,3.64,3.19,.3,.3,.36,.62,.05,.95-.85,.92-1.7,1.83-2.56,2.74-.23,.25-.51,.31-.78,.05-.26-.25-.22-.54,0-.8,.23-.28,.49-.54,.72-.81,.47-.54,1.02-1.02,1.44-1.68-.79-.69-1.54-1.36-2.32-2.02-.66-.56-.69-.56-1.23,.07-.96,1.13-1.89,2.28-2.86,3.4-.82,.95-.85,.95,.1,1.84,.41,.38,.85,.73,1.28,1.09,1.18,1,2.35,2.01,3.54,3.01,.22,.19,.37,.47,.73,.54,2.37-2.36,4.87-4.63,7.13-7.2-2.74-2.8-5.42-5.51-8.38-7.94-.25-.21-.55-.36-.81-.57-.38-.31-.64-.28-.96,.15-1.94,2.66-4.14,5.11-6.23,7.66-.69,.84-.69,.83-1.48,.14-.3-.26-.62-.49-.94-.73-1.22-.9-2.45-1.77-3.77-2.53-.83-.48-1.62-1.02-2.2-1.8-.51-.69-.53-1.21-.01-1.89,.75-1,1.37-2.09,2.06-3.14,.43-.66,.87-1.32,1.35-1.95,.54-.7,.73-.74,1.48-.24,1.22,.83,2.43,1.7,3.62,2.57,.49,.36,.52,.58,.17,1.08-.53,.76-1.09,1.49-1.64,2.22-.2,.26-.39,.53-.61,.77-.2,.22-.45,.26-.7,.06-.22-.19-.32-.42-.14-.69,.11-.17,.22-.33,.33-.49,.42-.59,.84-1.18,1.29-1.75,.3-.37,.24-.61-.15-.87-.74-.49-1.44-1.04-2.17-1.54-.6-.41-.61-.4-1.06,.21-1.03,1.41-1.84,2.97-2.94,4.33-.26,.32-.09,.55,.13,.76,.65,.61,1.38,1.12,2.14,1.58,1.38,.83,2.73,1.71,4,2.72,.52,.42,.54,.41,.98-.14,1.97-2.47,3.94-4.94,5.92-7.41-.05-.06-.11-.15-.18-.21-2.54-2.15-5.19-4.16-7.88-6.1-.53-.38-1.1-.72-1.69-1.02-.83-.43-.68-.63-1.39,.33-.58,.8-1.1,1.64-1.63,2.47-1.21,1.88-2.4,3.78-3.61,5.66-.49,.76-.76,.78-1.48,.19-.49-.4-1.04-.7-1.59-.98-1.17-.6-2.35-1.19-3.52-1.78-.79-.4-1.6-.79-2.24-1.42-.67-.66-.75-1.11-.27-1.93,.61-1.05,1.1-2.17,1.65-3.26,.37-.74,.75-1.47,1.17-2.17,.45-.75,.57-.77,1.35-.44,1.4,.59,2.68,1.41,3.97,2.2,.55,.33,.57,.53,.23,1.15-.53,.95-1.09,1.88-1.63,2.82-.07,.11-.13,.23-.22,.33-.21,.22-.46,.26-.71,.1-.23-.14-.28-.37-.2-.6,.08-.21,.2-.41,.31-.61,.35-.63,.7-1.27,1.08-1.88,.22-.36,.19-.58-.19-.78-.78-.42-1.54-.88-2.33-1.3-.71-.37-.72-.35-1.11,.33-.85,1.48-1.47,3.09-2.39,4.54-.24,.37-.1,.63,.22,.82,.65,.39,1.29,.79,1.96,1.14,1.54,.82,3.16,1.48,4.62,2.44,.37,.24,.51,.06,.69-.22,1.59-2.5,3.27-4.94,4.74-7.51,.41-.71,.41-.74-.32-1.2-2.17-1.38-4.33-2.75-6.57-4.01-1.12-.63-2.25-1.24-3.44-1.72-.73-.29-.73-.3-1.06,.43-1.36,3.04-2.96,5.95-4.44,8.92-.37,.75-.47,.76-1.18,.33-.25-.15-.51-.3-.79-.41-1.71-.69-3.38-1.46-5.15-2-.76-.23-1.49-.53-2.12-1.02-.77-.59-.91-1.09-.52-1.98,.45-1.03,.8-2.09,1.16-3.15,.29-.84,.58-1.68,.97-2.48,.39-.8,.57-.9,1.38-.62,1.37,.47,2.71,1.01,4.02,1.63,.7,.33,.77,.52,.47,1.24-.41,.97-.84,1.93-1.27,2.89-.07,.15-.14,.3-.23,.43-.15,.21-.36,.3-.6,.18-.22-.11-.39-.28-.34-.54,.04-.22,.14-.44,.22-.65,.36-.85,.72-1.69,1.09-2.56-.98-.55-1.98-.88-2.95-1.26-.75-.29-.76-.27-1.07,.45-.67,1.57-1.1,3.24-1.85,4.78-.19,.39-.03,.62,.3,.8,.64,.34,1.31,.62,1.99,.85,1.65,.56,3.27,1.19,4.87,1.89,.67,.29,.68,.3,1-.37,1.11-2.31,2.22-4.63,3.33-6.94,.25-.53,.52-1.04,.8-1.6-3.59-1.78-7.13-3.52-10.85-4.86-.19-.07-.38-.11-.57-.17-.45-.15-.72-.01-.92,.43-.45,.99-.79,2.02-1.15,3.04-.73,2.08-1.46,4.16-2.21,6.23-.36,1.01-.55,1.07-1.5,.62-.24-.11-.49-.19-.74-.27-1.58-.47-3.14-.97-4.77-1.24-.87-.15-1.74-.39-2.5-.88-.81-.52-1.01-1.01-.72-1.92,.33-1.07,.55-2.17,.8-3.25,.2-.86,.43-1.72,.69-2.57,.27-.86,.46-.98,1.28-.76,1.43,.38,2.85,.79,4.27,1.22,.64,.19,.74,.4,.55,1.02-.31,1.07-.66,2.14-.99,3.2-.11,.36-.26,.71-.74,.61-.37-.07-.46-.38-.31-.98,.07-.29,.17-.57,.26-.85,.14-.47,.27-.95,.43-1.41,.16-.44,.04-.67-.42-.78-.86-.22-1.71-.49-2.56-.72-.7-.19-.71-.17-.93,.55-.51,1.63-.73,3.34-1.31,4.96-.14,.4,.01,.64,.37,.78,.43,.17,.86,.34,1.3,.45,1.97,.51,3.99,.85,5.91,1.57,.37,.14,.53-.01,.65-.35,.99-2.82,2.1-5.61,2.96-8.48,.21-.7,.2-.71-.49-.98-2.95-1.13-5.97-2.05-8.99-2.96-.72-.22-1.48-.32-2.23-.44-.71-.11-.74-.08-.87,.58-.59,3.14-1.46,6.21-2.21,9.31-.31,1.27-.3,1.25-1.56,.95-1.7-.41-3.43-.64-5.17-.79-.99-.09-1.96-.24-2.88-.62-.89-.38-1.14-.86-.97-1.79,.14-.78,.25-1.56,.33-2.34,.13-1.21,.21-2.43,.5-3.62,.22-.92,.28-.98,1.19-.93,1.52,.08,2.99,.46,4.47,.77,.6,.12,.68,.29,.57,.92-.19,1.1-.41,2.2-.62,3.3-.02,.13-.04,.26-.1,.38-.11,.22-.28,.38-.54,.34-.29-.05-.47-.24-.49-.54,0-.16,.05-.32,.08-.48,.14-.78,.27-1.55,.41-2.33,.06-.32,.04-.58-.37-.65-.97-.16-1.94-.34-2.91-.51-.47-.08-.61,.14-.69,.58-.32,1.75-.38,3.53-.76,5.27-.08,.38,.14,.55,.46,.64,.73,.19,1.47,.36,2.22,.45,1.66,.21,3.34,.3,4.98,.7,.84,.2,.85,.19,1.04-.67,.68-3.01,1.36-6.02,2.04-9.04-.19-.2-.45-.23-.71-.29-1.93-.42-3.85-.85-5.78-1.27-1.8-.4-3.61-.73-5.45-.85-.94-.06-.95-.05-1.13,.9-.21,1.07-.29,2.15-.41,3.23-.24,2.16-.5,4.31-.78,6.47-.1,.78-.38,.97-1.12,.75-.42-.13-.84-.13-1.27-.15-1.91-.13-3.81-.15-5.72-.17-.57,0-1.12-.09-1.65-.28-.76-.27-1.07-.71-1-1.5,.12-1.35,.04-2.7,.07-4.05,.02-.72,.02-1.45,.1-2.17,.09-.84,.21-.93,1.06-.96,1.48-.06,2.96,.03,4.43,.22,.69,.09,.8,.2,.77,.88-.06,1.15-.16,2.3-.24,3.45,0,.1-.02,.2-.05,.29-.09,.24-.26,.38-.52,.37-.26,0-.46-.15-.5-.39-.04-.25-.02-.52,0-.78,.04-.72,.08-1.45,.14-2.17,.04-.43-.15-.59-.56-.6-.62-.03-1.25-.13-1.87-.14-1.78-.03-1.52-.22-1.6,1.47-.07,1.38-.07,2.76-.13,4.15-.03,.81,.02,.9,.82,1,.33,.04,.66,.05,.99,.06,1.94,.06,3.88,.12,5.82,.19,.83,.03,.86,.04,.96-.81,.33-2.81,.77-5.61,.94-8.44,.05-.89,.04-.91-.88-1-1.86-.2-3.73-.43-5.6-.58-1.93-.15-3.87-.33-5.82-.2-.79,.05-.81,.06-.79,.88,.08,3.16-.05,6.32-.08,9.48,0,.26,0,.53-.02,.79-.04,.39-.27,.61-.67,.53-.66-.13-1.31-.08-1.97-.03-1.74,.12-3.48,.18-5.21,.46-.7,.11-1.38,.06-2.06-.11-.71-.19-1.06-.6-1.08-1.34-.03-1.22-.22-2.42-.35-3.63-.09-.88-.17-1.77-.19-2.66-.02-.75,.16-.92,.91-1.01,1.44-.18,2.88-.28,4.33-.27,.88,0,.98,.11,1.02,.94,.05,.99,.08,1.97,.12,2.96,0,.2,.02,.4-.02,.59-.05,.29-.23,.48-.54,.47-.3-.01-.49-.19-.53-.48-.03-.23-.03-.46-.04-.69-.04-.72-.08-1.45-.11-2.17-.01-.38-.19-.53-.56-.5-.89,.07-1.78,.1-2.66,.19-.8,.08-.83,.11-.77,.91,.1,1.35,.27,2.69,.37,4.03,.13,1.78,.11,1.78,1.88,1.64,.07,0,.13-.01,.2-.02,2.03-.24,4.06-.44,6.1-.49,.47-.01,.62-.15,.61-.63-.02-3.19,0-6.37,0-9.56-.11-.03-.2-.08-.3-.08-3.56-.04-7.11-.03-10.66,.23-.52,.04-1.04,.13-1.57,.2-.43,.05-.61,.26-.59,.72,.04,1.02,.16,2.03,.27,3.05,.25,2.32,.5,4.65,.73,6.97,.08,.89-.1,1.05-.96,1.06-.2,0-.4,0-.59,.04-1.75,.31-3.52,.51-5.23,1-.76,.22-1.54,.36-2.34,.32-1.1-.06-1.57-.45-1.72-1.52-.12-.88-.32-1.75-.52-2.61-.25-1.06-.5-2.11-.64-3.19-.12-.9-.04-1.04,.82-1.25,1.47-.36,2.98-.54,4.47-.8,.49-.08,.78,.13,.85,.59,.19,1.2,.35,2.41,.52,3.61,0,.03,0,.07,0,.1,0,.29-.09,.53-.41,.58-.35,.05-.57-.1-.64-.45-.05-.26-.11-.52-.15-.78-.09-.59-.16-1.17-.26-1.76-.12-.67-.15-.7-.85-.59-.85,.13-1.69,.28-2.53,.45-.68,.14-.7,.16-.57,.83,.27,1.42,.58,2.84,.84,4.26,.29,1.53,.32,1.57,1.9,1.29,.1-.02,.19-.05,.29-.07,1.22-.26,2.44-.54,3.67-.77,.74-.14,1.49-.23,2.24-.35,.32-.05,.54-.13,.5-.56-.32-2.94-.54-5.9-.98-8.83-.13-.87-.15-.88-1.08-.79-2.36,.23-4.71,.49-7.05,.88-1.49,.25-3,.4-4.44,.91-.36,.13-.61,.22-.47,.75,.87,3.21,1.44,6.49,2.12,9.74,.04,.19,.1,.38,.12,.58,.03,.34-.08,.53-.47,.6-2.05,.33-4.02,.99-5.96,1.72-.86,.33-1.75,.6-2.68,.59-.91,0-1.32-.31-1.56-1.19-.29-1.08-.67-2.13-1.05-3.18-.31-.87-.61-1.74-.82-2.64-.19-.82-.11-.99,.66-1.27,1.45-.54,2.97-.86,4.45-1.29,.38-.11,.68,.02,.79,.39,.36,1.26,.69,2.54,1.01,3.81,.07,.28-.11,.51-.4,.6-.31,.1-.51-.07-.63-.33-.1-.21-.14-.44-.21-.66-.18-.67-.39-1.33-.54-2-.11-.46-.32-.58-.77-.44-.88,.27-1.77,.51-2.66,.75-.49,.13-.57,.37-.43,.86,.49,1.71,1.2,3.34,1.6,5.08,.08,.33,.31,.39,.6,.37,.56-.04,1.1-.19,1.64-.35,1.94-.61,3.83-1.41,5.84-1.81,.43-.08,.42-.3,.34-.64-.42-1.79-.83-3.59-1.24-5.38-.31-1.34-.61-2.68-.91-4.05-.17,.02-.3,.03-.42,.05-2.58,.51-5.13,1.17-7.68,1.82-1.28,.33-2.54,.69-3.75,1.21-.7,.3-.89,.19-.58,1.23,.23,.76,.45,1.51,.71,2.26,.76,2.21,1.53,4.41,2.29,6.62,.08,.22,.16,.43,.2,.66,.09,.52-.1,.85-.62,.91-.7,.09-1.33,.38-1.96,.65-1.21,.53-2.4,1.09-3.59,1.64-.75,.35-1.5,.69-2.31,.86-1.08,.22-1.59-.07-1.99-1.11-.37-.95-.83-1.86-1.28-2.78-.43-.89-.87-1.77-1.18-2.71-.25-.75-.19-.89,.5-1.26,1.33-.74,2.76-1.22,4.18-1.75,.6-.22,.82-.11,1.07,.5,.41,1,.8,2.02,1.19,3.03,.06,.15,.11,.31,.12,.48,.02,.25-.08,.45-.33,.54-.25,.08-.47,.02-.61-.19-.12-.19-.21-.41-.29-.62-.27-.67-.55-1.34-.8-2.02-.14-.37-.32-.53-.73-.37-.88,.36-1.78,.68-2.64,1.09-.39,.19-.54,.37-.36,.82,.69,1.67,1.59,3.25,2.19,4.96,.13,.37,.42,.36,.74,.26,.85-.26,1.67-.6,2.47-.98,1.55-.72,3.08-1.48,4.69-2.07,.05-.02,.06-.1,.12-.19-.98-2.9-1.89-5.86-3.03-8.73-.3-.77-.32-.79-1.04-.54-3.14,1.09-6.29,2.14-9.31,3.52-.74,.34-1.47,.7-2.12,1.17,.03,.12,.03,.19,.06,.24,1.61,3.02,2.92,6.19,4.38,9.28,.08,.18,.17,.36,.23,.54,.1,.33,0,.57-.33,.71-2.15,.86-4.1,2.08-6.03,3.34-.55,.36-1.13,.67-1.77,.86-1.08,.31-1.59,.12-2.11-.86-.49-.93-1.07-1.81-1.64-2.7-.5-.78-.99-1.55-1.39-2.39-.41-.86-.4-.94,.36-1.44,1.21-.79,2.48-1.49,3.77-2.15,.7-.36,.88-.3,1.26,.38,.52,.95,1.02,1.92,1.53,2.88,.05,.09,.08,.18,.13,.27,.14,.29,.05,.51-.2,.68-.31,.21-.57,.08-.76-.19-.12-.16-.2-.34-.29-.51-.32-.58-.62-1.16-.94-1.73-.37-.67-.38-.68-1.02-.33-.69,.38-1.38,.77-2.06,1.17-.79,.47-.78,.47-.36,1.25,.8,1.47,1.81,2.83,2.54,4.34,.16,.34,.4,.41,.72,.29,.56-.2,1.08-.49,1.58-.79,1.18-.71,2.36-1.44,3.55-2.14,.65-.38,1.32-.73,2.03-1.12-1.49-3.07-2.95-6.11-4.44-9.19-.74,.35-1.45,.69-2.16,1.02-2.78,1.29-5.52,2.65-8.11,4.28-1.59,1-1.39,.64-.59,2.22,.27,.53,.61,1.02,.92,1.52,1.24,1.98,2.48,3.96,3.72,5.94,.12,.2,.25,.39,.35,.6,.22,.49,.13,.85-.36,1.04-.62,.25-1.13,.67-1.68,1.03-1.13,.74-2.19,1.57-3.22,2.45-.7,.6-1.44,1.15-2.34,1.44-.9,.29-1.33,.17-1.86-.61-.65-.95-1.39-1.84-2.11-2.74-.58-.72-1.16-1.44-1.63-2.23-.38-.65-.37-.79,.19-1.26,1.19-.99,2.5-1.81,3.77-2.7,.39-.27,.74-.25,1.02,.15,.69,1,1.37,2.01,2.05,3.02,.21,.32,.22,.62-.14,.85-.33,.21-.56,.02-.75-.23-.2-.26-.38-.54-.57-.81-.41-.59-.83-1.18-1.26-1.79-1,.56-1.86,1.23-2.73,1.86-.56,.41-.57,.44-.16,.99,.84,1.14,1.72,2.25,2.57,3.38q1,1.33,2.4,.37c.08-.06,.16-.11,.24-.17,1.59-1.22,3.1-2.55,4.83-3.6,.36-.22,.28-.43,.1-.72-1.58-2.54-3.08-5.14-4.79-7.6-.41-.6-.43-.59-1.07-.21-2.61,1.54-5.11,3.25-7.6,4.96-.92,.63-1.75,1.38-2.55,2.21,2.27,2.6,4.24,5.36,6.32,8.03,.81,1.05,.8,1.03-.21,1.82-1.38,1.07-2.61,2.31-3.85,3.54-.7,.7-1.39,1.41-2.27,1.89-.85,.46-1.38,.38-2-.35-.64-.75-1.35-1.44-2.05-2.14-.75-.74-1.52-1.46-2.16-2.3-.51-.67-.5-.8,.07-1.43,.97-1.08,2.11-1.98,3.22-2.91,.62-.52,.83-.49,1.38,.15,.67,.77,1.33,1.55,2,2.32,.11,.12,.22,.25,.29,.4,.13,.27,.08,.52-.17,.7-.21,.15-.44,.14-.63-.04-.17-.16-.32-.33-.48-.5-.48-.54-.97-1.08-1.43-1.64-.28-.34-.5-.32-.81-.04-.65,.6-1.34,1.17-1.98,1.78-.57,.54-.55,.56,0,1.18,1.11,1.26,2.39,2.36,3.44,3.67,.3,.38,.61,.34,.93,.07,.63-.53,1.26-1.06,1.86-1.62,1.25-1.17,2.39-2.46,3.76-3.49,.33-.25,.27-.44,.05-.72-2.02-2.51-4.02-5.03-6.05-7.56-.12,.07-.24,.12-.34,.2-2.81,2.23-5.7,4.38-8.22,6.93-1.65,1.67-1.74,1.1-.06,2.91,1.88,2.02,3.88,3.94,5.83,5.9,.16,.16,.34,.32,.48,.5,.33,.44,.32,.77-.13,1.09-.55,.39-.95,.91-1.39,1.39-1.06,1.17-2.11,2.36-3.05,3.63-.41,.56-.91,1.04-1.5,1.42-.71,.45-1.28,.42-1.89-.14-.97-.9-2.02-1.69-3.05-2.51-.64-.51-1.27-1.05-1.84-1.64-.36-.37-.39-.72-.07-1.13,.96-1.21,1.97-2.39,3.06-3.48,.5-.5,.71-.49,1.25,0,.8,.73,1.59,1.48,2.39,2.22,.1,.09,.19,.18,.27,.29,.15,.21,.16,.44-.02,.63-.19,.22-.43,.31-.7,.13-.16-.11-.31-.24-.46-.37-.54-.49-1.06-.98-1.6-1.46-.51-.46-.52-.46-1,.07-.53,.59-1.05,1.18-1.56,1.79-.6,.73-.72,.62,.14,1.37,1.17,1.01,2.38,1.98,3.54,3,.63,.55,.66,.57,1.28,0,.19-.18,.38-.37,.55-.57,1.45-1.74,2.86-3.52,4.4-5.13-.01-.1,0-.14-.03-.16-2.18-2.33-4.4-4.62-6.73-6.81-.39-.37-.6-.18-.89,.1-2.42,2.37-4.8,4.79-7.02,7.36-.39,.45-.69,.96-1.06,1.42-.3,.37-.24,.59,.14,.87,2.61,1.91,5.01,4.06,7.51,6.11,.2,.17,.41,.33,.61,.51,.32,.3,.37,.62,0,.92-.6,.49-.98,1.15-1.44,1.74-.84,1.1-1.57,2.27-2.28,3.46-.47,.79-1,1.56-1.77,2.1-.69,.49-1.13,.52-1.8,.01-1.14-.85-2.38-1.54-3.55-2.32-.6-.4-1.18-.84-1.76-1.26-.41-.3-.47-.66-.19-1.11,.84-1.34,1.81-2.59,2.74-3.87,.28-.39,.63-.46,1.02-.17,.96,.7,1.91,1.4,2.86,2.11,.29,.21,.48,.49,.25,.84-.28,.42-.61,.27-.93,.03-.61-.44-1.22-.89-1.84-1.33-.67-.48-.68-.48-1.19,.21-.43,.58-.86,1.17-1.27,1.77-.59,.87-.64,.73,.21,1.35,1.36,.99,2.86,1.76,4.17,2.82,.36,.29,.61,.1,.84-.16,.58-.64,1.07-1.33,1.51-2.07,.82-1.35,1.67-2.68,2.65-3.93,.16-.2,.39-.36,.4-.7-.23-.19-.48-.41-.74-.61-2.19-1.75-4.38-3.49-6.56-5.24-.6-.48-.59-.5-1.11,.12-1.94,2.29-3.72,4.7-5.5,7.1-.57,.77-1.03,1.6-1.5,2.44-.18,.33-.13,.52,.15,.74,.7,.55,1.44,1.04,2.19,1.51,2,1.26,4.01,2.53,6.01,3.8,.22,.14,.45,.28,.65,.45,.37,.33,.41,.67,.07,1.03-.59,.6-.94,1.35-1.32,2.07-.59,1.14-1.17,2.29-1.74,3.43-.34,.68-.69,1.35-1.2,1.92-.71,.81-1.22,.91-2.16,.37-.91-.53-1.87-.97-2.82-1.42-.86-.41-1.73-.81-2.53-1.34-.72-.47-.76-.6-.44-1.36,.59-1.4,1.41-2.68,2.19-3.97,.34-.55,.53-.58,1.14-.24,.95,.53,1.88,1.08,2.82,1.63,.14,.08,.28,.18,.4,.29,.16,.15,.2,.35,.11,.54-.1,.23-.28,.36-.55,.34-.27-.02-.49-.19-.72-.31-.79-.44-1.58-.89-2.41-1.35-.6,1.02-1.17,1.94-1.65,2.91-.24,.47-.13,.71,.31,.92,.47,.23,.93,.49,1.4,.73,.99,.51,2,1.01,2.98,1.54,.73,.39,.8,.4,1.25-.29,.29-.44,.55-.9,.8-1.36,.93-1.77,1.72-3.62,2.78-5.3Z"/><g><g><polygon class="cls-4" points="356.85 87.95 349.77 97.15 339.13 110.95 304.8 155.54 302.96 154.18 335.71 108.41 345.85 94.24 352.6 84.8 356.85 87.95"/><polygon class="cls-3" points="349.77 97.15 339.13 110.95 335.71 108.41 345.85 94.24 349.77 97.15"/></g><g><polygon class="cls-4" points="370.1 99.73 361.88 107.94 349.56 120.25 309.75 160.04 308.11 158.45 346.49 117.29 358.38 104.55 366.29 96.06 370.1 99.73"/><polygon class="cls-3" points="361.88 107.94 349.56 120.25 346.49 117.29 358.38 104.55 361.88 107.94"/></g></g><path class="cls-6" d="M339.81,148.95v3.45c0,2.2-.11,4.37-.32,6.51-.07,.7-.15,1.4-.24,2.09-.38,2.89-.95,5.72-1.69,8.47-.19,.7-.39,1.4-.6,2.09-5.78,18.89-19.89,34.15-38.06,41.49h0c-3.46,1.4-7.06,2.51-10.78,3.3,.31,.61,.49,1.3,.49,2.04v.29c0,2.49-2.02,4.52-4.51,4.52h-30c-2.49,0-4.51-2.02-4.51-4.52v-.29c0-1.02,.34-1.96,.91-2.72-21.93-5.72-39.37-22.55-45.97-44.11-.21-.69-.41-1.39-.6-2.09-.75-2.76-1.31-5.59-1.69-8.47-.09-.69-.17-1.39-.24-2.09-.21-2.14-.32-4.31-.32-6.51v-3.45h138.15Z"/><g><path class="cls-1" d="M220.9,158.9h-18.91c.07,.7,.15,1.4,.24,2.09h137.03c.09-.69,.17-1.39,.24-2.09h-118.6Z"/><path class="cls-1" d="M203.92,169.46c.19,.7,.39,1.4,.6,2.09h132.44c.21-.69,.41-1.39,.6-2.09H203.92Z"/></g><g class="cls-7"><path class="cls-1" d="M316.23,193.05c-.78,0-1.56-.27-2.19-.81-1.41-1.21-1.57-3.34-.36-4.75,.3-.35,.61-.72,.9-1.08,2.26-2.76,4.31-5.79,6.09-8.98,1.51-2.7,2.84-5.55,3.97-8.49,.9-2.35,1.67-4.75,2.29-7.14,.45-1.73,.79-3.33,1.05-4.89,.08-.51,.18-1.12,.24-1.71,.18-1.85,1.83-3.2,3.68-3.02,1.85,.18,3.2,1.83,3.02,3.68-.08,.78-.19,1.52-.29,2.14-.29,1.76-.67,3.56-1.17,5.48-.68,2.63-1.53,5.28-2.53,7.86-1.24,3.23-2.71,6.38-4.38,9.35-1.98,3.54-4.25,6.89-6.76,9.96-.33,.4-.67,.81-1.01,1.2-.67,.78-1.61,1.17-2.56,1.17Z"/></g><g><path class="cls-1" d="M231.08,77.22c4.27-2.83,10.03-1.67,12.87,2.59,6.29-3.16,14.09-1.19,18.07,4.83,3.27,4.94,3.02,11.18-.14,15.78,2.02,3.86,.83,8.71-2.89,11.16-1.63,1.08-3.5,1.53-5.31,1.41v.03c.01,.1,.04,.2,.05,.31l.03,.16v.04s.03,.06,.03,.06l.05,.13,.2,.52c.52,1.41,.97,2.85,1.29,4.34,.32,1.49,.52,3.02,.49,4.56-.02,.77-.09,1.54-.24,2.3-.15,.75-.38,1.49-.68,2.17-.31,.68-.69,1.32-1.15,1.87-.46,.55-.97,1.02-1.52,1.42,.3-.61,.51-1.23,.63-1.85,.13-.62,.15-1.24,.1-1.83-.09-1.19-.48-2.3-1.01-3.32-.53-1.02-1.23-1.97-1.99-2.86-.77-.89-1.62-1.72-2.52-2.51l-.34-.29-.09-.07s-.03-.02-.04-.04l-.06-.06-.23-.25c-.15-.17-.32-.34-.46-.52l-.44-.56c-.57-.77-1.09-1.6-1.51-2.51-.23-.5-.45-1.03-.63-1.56-2.43-.14-4.77-1.39-6.22-3.58-.75-1.13-1.17-2.38-1.29-3.65-2.98-.5-5.76-2.18-7.55-4.9-2.33-3.51-2.42-7.85-.64-11.36-2.13-4.16-.84-9.35,3.15-11.99Z"/><path d="M226.98,89.21c-2.08-4.53-.57-9.93,3.63-12.71,4.45-2.94,10.4-1.92,13.62,2.23,6.62-2.93,14.47-.67,18.51,5.43,3.29,4.97,3.33,11.33,.13,16.32,1.93,4.22,.52,9.22-3.4,11.82-1.41,.93-3,1.46-4.66,1.56l.04,.1c.58,1.58,1.02,3.04,1.32,4.45,.37,1.74,.54,3.29,.5,4.76-.02,.85-.1,1.68-.26,2.44-.16,.83-.41,1.62-.75,2.36-.35,.78-.78,1.47-1.27,2.06-.49,.59-1.05,1.12-1.68,1.57-.32,.23-.76,.21-1.06-.04-.3-.26-.39-.68-.22-1.04,.26-.53,.45-1.08,.56-1.64,.1-.5,.13-1.04,.09-1.6-.07-.97-.37-1.94-.92-2.98-.45-.87-1.07-1.75-1.88-2.69-.69-.8-1.49-1.59-2.43-2.42l-.43-.37s0,0-.01-.01c-.02-.02-.04-.03-.06-.06-.01-.01-.03-.03-.04-.04l-.3-.33s-.08-.09-.13-.14c-.12-.13-.24-.27-.37-.43l-.44-.56s-.01-.01-.02-.02c-.67-.91-1.19-1.78-1.59-2.66-.17-.37-.33-.74-.47-1.11-2.58-.32-4.86-1.72-6.31-3.91-.68-1.03-1.14-2.19-1.35-3.4-3.06-.68-5.77-2.53-7.5-5.15-2.33-3.52-2.65-8.02-.88-11.83Zm10,16.17c.11,1.16,.51,2.28,1.16,3.25,1.25,1.89,3.28,3.06,5.55,3.19,.35,.02,.65,.25,.76,.58,.17,.49,.37,.99,.6,1.48,.35,.77,.81,1.54,1.41,2.34l.42,.54c.09,.11,.19,.22,.3,.34,.05,.05,.09,.1,.13,.14l.23,.25,.47,.41c1.01,.89,1.87,1.73,2.61,2.59,.9,1.04,1.59,2.03,2.1,3.02,.65,1.25,1.02,2.45,1.11,3.65,.02,.22,.02,.43,.02,.64,.09-.17,.18-.35,.27-.54,.28-.62,.49-1.29,.63-1.99,.13-.67,.21-1.39,.22-2.15,.03-1.33-.12-2.76-.47-4.36-.29-1.33-.7-2.71-1.25-4.21l-.28-.72c-.02-.05-.03-.11-.04-.16l-.03-.21s-.01-.06-.02-.09c-.01-.07-.03-.17-.04-.28v-.03c-.02-.25,.07-.49,.24-.67,.18-.18,.42-.27,.67-.25,1.7,.11,3.36-.33,4.78-1.27,3.32-2.2,4.44-6.52,2.6-10.05-.15-.28-.13-.62,.05-.89,3.08-4.47,3.13-10.29,.13-14.82-3.7-5.58-10.99-7.53-16.97-4.53-.39,.19-.86,.07-1.1-.29-2.57-3.86-7.81-4.91-11.68-2.35-3.59,2.38-4.82,7.05-2.86,10.88,.13,.25,.13,.54,0,.78-1.71,3.35-1.48,7.37,.59,10.49,1.59,2.4,4.13,4.05,6.98,4.52,.24,.04,.45,.18,.58,.37,.08,.11,.12,.25,.14,.39Z"/></g><path class="cls-5" d="M227.19,83.03c-1.06,5.19,2.3,10.26,7.49,11.32,4.16,.84,8.21-1.84,9.05-5.99,.68-3.32-1.47-6.57-4.8-7.24-2.66-.54-5.25,1.18-5.79,3.84-.43,2.13,.94,4.2,3.07,4.64"/><path class="cls-2" d="M262.78,105.55c.61-3-1.33-5.92-4.32-6.53-2.4-.49-4.74,1.06-5.22,3.46-.39,1.92,.85,3.79,2.77,4.18,1.53,.31,3.03-.68,3.34-2.21,.25-1.23-.54-2.43-1.77-2.67"/><g><path class="cls-1" d="M292.17,56.12c5.89,.04,10.63,4.85,10.61,10.73,8.02,1.03,14.19,7.91,14.13,16.2-.05,6.81-4.29,12.6-10.26,14.96-.55,4.98-4.8,8.83-9.91,8.79-2.25-.02-4.32-.78-5.97-2.06l-.02,.03c-.06,.1-.1,.22-.15,.33l-.08,.17-.02,.04-.02,.08-.04,.16-.15,.63c-.41,1.67-.91,3.34-1.55,4.96-.65,1.62-1.44,3.21-2.46,4.66-.51,.72-1.08,1.41-1.7,2.03-.62,.62-1.32,1.18-2.05,1.63-.73,.45-1.51,.81-2.3,1.05-.79,.23-1.58,.35-2.35,.38,.67-.39,1.27-.85,1.79-1.36,.52-.51,.94-1.09,1.27-1.68,.68-1.19,1.02-2.5,1.16-3.81,.15-1.32,.09-2.66-.07-4-.16-1.34-.44-2.68-.8-4.01l-.14-.5-.03-.12s-.01-.04-.02-.06l-.02-.1-.06-.39c-.04-.26-.08-.53-.11-.8l-.06-.81c-.05-1.09-.01-2.23,.17-3.36,.1-.63,.23-1.26,.4-1.89-2.23-1.7-3.65-4.38-3.63-7.4,.01-1.56,.41-3.03,1.11-4.31-2.52-2.39-4.09-5.77-4.06-9.52,.04-4.84,2.73-9.04,6.68-11.24,.64-5.33,5.19-9.45,10.69-9.41Z"/><path d="M280.57,64.92c.92-5.66,5.83-9.83,11.61-9.78,6.13,.05,11.14,4.85,11.56,10.87,8.19,1.46,14.22,8.65,14.16,17.06-.05,6.86-4.09,12.93-10.35,15.65-.87,5.26-5.42,9.13-10.82,9.08-1.94-.01-3.8-.53-5.44-1.5l-.03,.12c-.46,1.89-.98,3.55-1.6,5.09-.76,1.89-1.6,3.49-2.57,4.86-.56,.8-1.17,1.53-1.81,2.17-.69,.69-1.43,1.28-2.23,1.77-.84,.52-1.69,.91-2.53,1.15-.84,.25-1.72,.39-2.61,.42-.45,.01-.86-.28-.98-.72-.12-.44,.07-.9,.46-1.13,.59-.34,1.13-.74,1.59-1.2,.42-.41,.79-.9,1.11-1.47,.55-.97,.89-2.09,1.04-3.43,.13-1.12,.1-2.36-.06-3.77-.15-1.2-.4-2.47-.77-3.87l-.17-.62s0-.01,0-.02c0-.03-.02-.06-.02-.09,0-.02,0-.04-.01-.06l-.08-.51c-.01-.07-.02-.14-.03-.21-.03-.2-.06-.41-.08-.65l-.06-.81s0-.02,0-.03c-.06-1.3,0-2.46,.18-3.55,.07-.46,.16-.91,.27-1.36-2.26-1.96-3.53-4.76-3.51-7.78,.01-1.41,.32-2.82,.9-4.1-2.48-2.61-3.88-6.11-3.85-9.72,.04-4.85,2.61-9.35,6.76-11.84Zm-.84,21.84c-.64,1.17-.98,2.5-.99,3.84-.02,2.61,1.16,5.02,3.24,6.6,.32,.24,.46,.65,.36,1.04-.16,.58-.28,1.18-.38,1.79-.16,.96-.21,1.98-.16,3.14l.06,.78c.02,.16,.04,.34,.07,.52,.01,.08,.02,.15,.03,.22l.06,.39,.18,.69c.4,1.5,.67,2.85,.82,4.15,.19,1.57,.21,2.95,.07,4.23-.18,1.61-.6,2.98-1.29,4.19-.12,.22-.25,.43-.39,.63,.2-.1,.4-.22,.6-.34,.66-.41,1.29-.91,1.87-1.49,.56-.55,1.09-1.2,1.59-1.9,.88-1.25,1.65-2.71,2.35-4.46,.58-1.45,1.08-3.03,1.51-4.82l.2-.87c.02-.06,.04-.13,.06-.18l.1-.23s.03-.06,.04-.1c.03-.08,.08-.18,.14-.29l.02-.03c.14-.25,.38-.42,.66-.48,.28-.06,.57,.01,.8,.19,1.55,1.2,3.41,1.84,5.37,1.85,4.58,.03,8.42-3.37,8.93-7.91,.04-.36,.28-.68,.62-.81,5.8-2.29,9.59-7.81,9.63-14.05,.06-7.7-5.65-14.24-13.27-15.21-.49-.06-.86-.49-.86-.98,.02-5.33-4.3-9.7-9.63-9.74-4.95-.04-9.12,3.63-9.7,8.54-.04,.32-.22,.59-.5,.75-3.78,2.1-6.14,6.07-6.17,10.38-.03,3.31,1.34,6.51,3.75,8.79,.2,.19,.31,.46,.31,.73,0,.16-.04,.32-.12,.46Z"/></g><path class="cls-5" d="M284.73,59.16c-4.34,4.27-4.39,11.26-.12,15.6,3.42,3.47,9.01,3.51,12.48,.1,2.78-2.74,2.81-7.2,.08-9.98-2.19-2.22-5.76-2.25-7.99-.06-1.78,1.75-1.8,4.61-.05,6.39"/><path class="cls-2" d="M304.21,103.47c2.5-2.47,2.53-6.5,.07-9-1.97-2-5.2-2.03-7.2-.06-1.6,1.58-1.62,4.16-.04,5.76,1.26,1.28,3.33,1.3,4.61,.04,1.03-1.01,1.04-2.66,.03-3.69"/><g><path class="cls-1" d="M253.82,190.35c-.22,0-.41-.08-.56-.24-.15-.16-.23-.35-.23-.57s.08-.41,.23-.56c.15-.15,.34-.23,.56-.23h6.23v-3.22c0-.26,.08-.46,.25-.61,.17-.15,.37-.23,.6-.23s.43,.08,.6,.23c.16,.15,.25,.36,.25,.61v3.22h6.21c.22,0,.41,.08,.57,.23,.16,.15,.24,.34,.24,.56s-.08,.41-.24,.57c-.16,.16-.35,.24-.57,.24h-14.14Zm-.26,9.08c-.18-.19-.26-.4-.24-.64,.01-.24,.11-.44,.3-.6,.53-.46,1.05-1.02,1.58-1.68,.53-.67,1.02-1.35,1.47-2.07s.81-1.37,1.08-1.98c.1-.22,.27-.37,.48-.45,.22-.08,.43-.07,.66,.03,.21,.09,.36,.24,.44,.46,.08,.21,.08,.43-.02,.67-.5,1.11-1.13,2.21-1.89,3.31-.76,1.1-1.59,2.06-2.49,2.89-.19,.18-.41,.28-.67,.32s-.49-.05-.69-.24Zm14.6-.12c-.19,.19-.41,.27-.67,.26-.26-.01-.49-.11-.67-.28-.55-.53-1.09-1.12-1.62-1.79-.53-.67-1.03-1.37-1.51-2.12-.47-.75-.9-1.49-1.27-2.24-.11-.22-.11-.43-.02-.64,.09-.2,.24-.35,.44-.43,.22-.09,.43-.11,.63-.04,.2,.06,.36,.21,.47,.43,.51,.99,1.14,1.97,1.87,2.94,.74,.97,1.51,1.83,2.33,2.59,.19,.18,.28,.39,.29,.65,0,.26-.08,.48-.27,.67Z"/><path class="cls-1" d="M283.18,200.15c-.26,0-.47-.08-.63-.25-.16-.17-.25-.38-.26-.64-.01-.25,.07-.46,.24-.63,.17-.18,.37-.27,.6-.28,.42-.02,.74-.06,.95-.12,.22-.06,.36-.17,.44-.34,.08-.17,.11-.42,.11-.76v-3.01h-6.32c-.15,1.24-.46,2.32-.94,3.25-.47,.93-1.15,1.76-2.02,2.49-.19,.15-.41,.23-.66,.24-.25,0-.46-.08-.64-.27-.16-.19-.24-.39-.22-.62,.02-.23,.12-.42,.31-.57,.64-.51,1.16-1.08,1.54-1.7,.39-.62,.66-1.32,.83-2.11,.17-.79,.25-1.69,.25-2.72v-4.24c0-1.14,.26-1.95,.79-2.42,.53-.47,1.42-.7,2.68-.7h2.59c1.26,0,2.15,.23,2.68,.7,.53,.47,.79,1.27,.79,2.42v9.5c0,.99-.23,1.7-.7,2.14-.47,.43-1.27,.65-2.42,.65Zm-4.76-11.46h6.21v-.74c0-.63-.13-1.07-.39-1.31-.26-.24-.76-.37-1.48-.37h-2.47c-.71,0-1.2,.12-1.47,.37-.27,.25-.4,.68-.4,1.31v.74Zm0,3.94h6.21v-2.43h-6.21v2.43Z"/></g><g><path class="cls-1" d="M8.47,329.53H46.34v68.37l-15.97,16.33H0l2.54-14.4H22.87l8.11-8.35v-47.55H5.93l2.54-14.4Z"/><path class="cls-1" d="M133.34,397.9l-15.97,16.33h-33.03l-15.97-16.33v-68.37h15.25v61.95l8.23,8.35h18.03l8.11-8.35v-61.95h15.37v68.37Z"/><path class="cls-1" d="M220.58,397.9l-15.97,16.33h-33.03l-15.97-16.33v-68.37h15.25v61.95l8.23,8.35h18.03l8.11-8.35v-61.95h15.37v68.37Z"/><path class="cls-1" d="M293.78,400.2v-70.66h14.76v84.7h-29.89l-17.79-70.66h-3.63v70.66h-14.76v-84.7h29.65l17.91,70.66h3.75Z"/><path class="cls-1" d="M346.42,414.23h-15.25v-84.7h15.25v84.7Z"/><path class="cls-1" d="M382.72,352.28v6.66l43.92,14.16v24.81l-15.97,16.33h-44.65l2.54-14.4h34.61l8.23-8.35v-7.74l-44.04-14.16v-24.32l15.97-15.73h36.91l2.54,14.4h-31.94l-8.11,8.35Z"/><path class="cls-1" d="M496.46,364.62v-35.09h15.25v84.7h-15.25v-35.09h-34.36v35.09h-15.25v-84.7h15.25v35.09h34.36Z"/><path class="cls-1" d="M549.94,414.23h-15.25v-84.7h15.25v84.7Z"/></g></g></svg>